<?xml version="1.0" encoding="utf-8"?>
<!-- Generator: Adobe Illustrator 16.0.0, SVG Export Plug-In . SVG Version: 6.00 Build 0)  -->
<!DOCTYPE svg PUBLIC "-//W3C//DTD SVG 1.1//EN" "http://www.w3.org/Graphics/SVG/1.1/DTD/svg11.dtd">
<svg version="1.1" xmlns="http://www.w3.org/2000/svg" xmlns:xlink="http://www.w3.org/1999/xlink" x="0px" y="0px"
	 width="841.891px" height="595.279px" viewBox="0 0 841.891 595.279" enable-background="new 0 0 841.891 595.279"
	 xml:space="preserve">
<g id="Layer_1">
	<g id="Calque_3">
		<g>
			<path id="algeria_7_" fill="#2A1810" d="M385.688,137.022l-6.589-2.213l-27.469,5.158l-5.981,4.545l3.654,18.882l-10.915,0.443
				l-6.567,10.563l-15.644,3.755l0.05,7.688l51.513,39.398l8.791,0.747l29.287-22.896l-2.93-3.69l-5.503-0.739l-3.296-5.536v-22.896
				l-2.197-2.213l0.369-5.914l-5.856-5.905l-0.725-6.28l2.557-1.843l-1.1-6.65L385.688,137.022L385.688,137.022z"/>
			<path id="morocco_7_" fill="#2A1810" d="M293.033,183.914l-19.039,31.379l18.681-0.374l0.736-9.223h4.75v-12.561h16.483
				l0.365-16.242l15.759-3.687l6.601-10.713l10.252-0.374l-3.314-17.351l0,0h-18.688l-3.646,8.123l-8.434,4.068l-6.947,18.832
				L293.033,183.914"/>
			<path id="mauretania_7_" fill="#2A1810" d="M274.123,216.59l3.53,4.604l-0.729,19.938l5.128-3.684l3.655-0.743l5.124,1.847
				l5.856,8.128l5.502-3.687l26.734-0.379l-6.604-44.675l7.089-0.038l-13.198-10.11l0.013,6.569l-16.703,0.016l-0.085,12.546
				l-4.808-0.023l-0.61,9.257L274.123,216.59L274.123,216.59z"/>
			<path id="senegal_7_" fill="#2A1810" d="M282.567,238.689l-6.372,4.633l-1.457,2.588l-0.446,2.59l2.343,1.683l7.824-0.114
				l5.034-1.357l0.572,2.479l-0.458,3.268l4.804,2.36l1.003,1.135l6.372,0.229l0.221-2.819l-5.817-6.993l-6.486-8.786l-4.025-1.684
				L282.567,238.689L282.567,238.689z"/>
			<path id="gambia_7_" fill="#E0DABA" d="M277.344,251.669l-0.214,1.794l11.194-0.161l0.567-1.663l-0.239-1.687l-3.22,1.304
				L277.344,251.669L277.344,251.669z"/>
			<path id="casamance_7_" fill="#E0DABA" d="M277.18,254.71l2.012,4.872l1.113-3.007l13.605,1.42l-5.892-3.022L277.18,254.71
				L277.18,254.71z"/>
			<path id="bissau_7_" fill="#E0DABA" d="M280.106,261.689l2.266,4.479l6.357-5.477l0.067-1.683l-7.492-1.084L280.106,261.689
				L280.106,261.689z"/>
			<path id="guinee_7_" fill="#B7AD84" d="M283.052,267.202l4.923,7.573l6.4-5.562l6.566-0.298l5.468,7.265l4.64,3.062l1.752-3.399
				l1.554-0.874l-0.115-7.479l-3.09-8.863l-9.479,1.05l-11.729-0.936l-0.065,3.011L283.052,267.202L283.052,267.202z"/>
			<path id="sierra_leone_7_" fill="#E0DABA" d="M288.733,275.6l9.138,8.845l6.518-7.921l-4.074-6.392l-5.616,0.568L288.733,275.6
				L288.733,275.6z"/>
			<path id="liberia_7_" fill="#E0DABA" d="M298.821,285.406l17.757,11.883l-0.416-8.997l-5.371-6.326l-5.234-4.644L298.821,285.406
				L298.821,285.406z"/>
			<path id="ivoire_7_" fill="#2A1810" stroke="#2A1810" stroke-width="0.6797" stroke-miterlimit="10" d="M318.07,297.638
				l6.922-4.899l8.607-1.503l8.782,1.89l-4.481-6.78l-1.311-4.144l1.311-12.252l-7.846,0.369l-3.557-3.398l-7.475,0.203l-3.558,0.56
				l0.375,8.288l-1.878,0.767l-2.243,4.141l5.792,6.78L318.07,297.638L318.07,297.638z"/>
			<path id="mali_7_" fill="#2A1810" d="M297.677,247.625l4.979-3.418l27.685-0.161l-6.401-44.568l7.31-0.209l35.379,27.006
				l4.754,0.68l-1.794,15.018l-22.239,2.022l-17.165,12.815l-3.122,8.769l-11.919,0.5l-3.038-8.753l-9.143,0.645l0.353-2.865
				L297.677,247.625L297.677,247.625z"/>
			<path id="burkina_7_" fill="#2A1810" d="M348.03,245.099l5.883-0.469l9.657,13.659l-8.959,6.765l-6.486-1.672l-8.719,0.11
				l-1.403,5.116l-7.313,0.358l-2.012-2.739l2.595-8.312L348.03,245.099L348.03,245.099z"/>
			<path id="niger_7_" fill="#B7AD84" d="M364.688,257.595l4.125-0.096l3.725-5.59l6.237-1.114l6.646,4.056l14.187,0.404
				l10.974-4.464l4.121-3.548l0.311-4.663l7.648-7.72l2.022-17.043l-5.028-10.547l-12.883-3.144l-29.79,23.24l-4.22-0.408
				l-1.812,16.136l-15.205,1.521L364.688,257.595L364.688,257.595z"/>
			<path id="ghana_7_" fill="#E0DABA" d="M337.918,281.941l1.811,4.26l4.723,7.411l2.618-0.095l7.15-4.06l-0.506-23.129
				l-5.531-1.618l-7.745,0.214L337.918,281.941L337.918,281.941z"/>
			<path id="togo_7_" fill="#2A1810" stroke="#2A1810" stroke-width="0.6797" stroke-miterlimit="10" d="M355.516,288.741
				l4.33-2.541l-0.096-16.75l-2.819-4.563l-1.809,1.526L355.516,288.741L355.516,288.741z"/>
			<path id="benin_7_" fill="#E0DABA" d="M361.154,285.894h3.427l0.195-9.736l4.338-6.3l-0.191-10.954l-3.931-0.093l-6.744,5.273
				l2.809,5.373L361.154,285.894L361.154,285.894z"/>
			<path id="nigeria_7_" fill="#E0DABA" d="M365.786,285.703l6.334,0.305l7.654,8.533l3.72,1.011l2.911-1.416l4.434-0.618
				l1.505-6.181l6.035-3.965l6.532-0.31l11.965-22.029l-0.19-4.969l-5.532-4.259l-11.064,4.877l-14.797-0.21l-7.051-4.468
				l-5.032,1.114l-2.617,4.562l-0.193,12.881l-4.226,5.991L365.786,285.703L365.786,285.703z"/>
			<path id="tunisia_7_" fill="#2A1810" d="M387.363,136.762l8.943-3.602l2.94,1.907l0.107,2.327l-1.37,1.793l0.21,3.189
				l1.378,0.748v5.72l-1.588,2.655l0.21,1.697l5.998,2.121l-4.838,7.524l-1.893-0.11l-0.32,6.056l-2.104,0.319l-1.792-1.587
				l0.416-6.149l-5.884-5.725l-0.744-4.981l2.843-2.236L387.363,136.762L387.363,136.762z"/>
			<path id="libya_7_" fill="#E0DABA" d="M395.677,170.254l2.519-0.415l0.748-5.827h1.263l5.155-8.478l12.729,3.7l3.479,5.41
				l12.52,5.728l6.513-2.754l-0.63-2.751l-2.843-2.747l0.312-1.916l4.632-3.914h9.157l3.48,4.658l7.357,1.071l0.951,59.689
				l-5.464-0.21l-33.02-17.183l-3.579,2.026l-13.575-3.403l-3.679-4.863l-5.38-0.757l-2.732-4.868L395.677,170.254L395.677,170.254z
				"/>
			<path id="egypt_7_" fill="#E0DABA" d="M463.406,162.215l4.322,0.11l8.417,2.331l3.986,0.11l4.941-4.14h2.326l4.205,2.331h5.319
				l0.948-0.068l3.362,9.676l0.954,3.121l0.893,4.678l-1.588,1.16l-2.73-1.374l-3.155-10.294l-2.843-0.214l-0.214,3.499l1.886,6.048
				l15.154,18.771l0.328,8.062l-4.418,5.095l-41.464-0.467L463.406,162.215L463.406,162.215z"/>
			<path id="chad_7_" fill="#E0DABA" d="M416.28,247.881l0.21-4.774l7.669-7.459l2.049-18.316l-5.111-9.769l3.579-1.832
				l34.613,18.044l-0.214,17.703l-6.101,5.197v9.126l3.987,7.734h-7.048l-11.673,11.554l-0.312,3.498l-8.615-0.114l-0.11,1.579
				l-4.926-0.646l-3.361-6.359l-2.521-1.244l0.32-1.945l3.175-2.431v-11.355l-4.389-0.679l-5.287-3.934L416.28,247.881
				L416.28,247.881L416.28,247.881z"/>
			<path id="sudan_7_" fill="#E0DABA" d="M460.532,242.108l0.287-19.146l3.987,0.114l-0.458-10.631l41.729,0.366l5.965-6.018
				l12.88,20.6l-7.059,8.318v12.697l-11.088,23.869l-3.82,1.687l1.212,6.646h4.753l6.456,9.374l-5.175,0.66l-1.327,2.404
				l-0.13,3.487l-15.527-0.283l-1.58-2.411l-10.855-0.61l-19.92-20.52l1.983-1.198l0.529-4.814l-4.766-2.815l-4.354-8.6l0.248-7.99
				L460.532,242.108L460.532,242.108z"/>
			<path id="cameroon_7_" fill="#2A1810" d="M392.068,293.647l5.208,4.785l-0.37,7.417l28.559-0.664l2.332-2.621l-8.188-8.826
				l-1.213-3.182l5.212-9.761l-3.541-6.473l-2.976-1.602v-3.281l3.439-2.251l0.195-10.229l-2.729-0.306l-0.05,5.371l-12.007,22.417
				l-7.338,0.365l-5.033,3.464L392.068,293.647L392.068,293.647z"/>
			<path id="eritrea_7_" fill="#E0DABA" d="M519.665,245.778l-0.403-9.53l6.401-7.476l1.729,1.324l3.163,10.554l15.124,11.278
				l-2.739,3.389l-11.088-9.529h-12.188V245.778z"/>
			<path id="djibouti_7_" fill="#E0DABA" d="M543.551,256.851l-0.907,5.435l6.396-0.101l0.104-7.994l-2.357-1.438L543.551,256.851
				L543.551,256.851z"/>
			<path id="ethiopia_7_" fill="#E0DABA" d="M507.985,273.383l11.778-26.213l11.688,0.064l10.373,9.014l-0.73,7.428h8.05
				l0.815,4.469l13.005,7.783l8.022,0.404l-15.257,16.392l-20.934,6.456H529.6l-9.252-7.894l-3.659-1.538l-7.086-10.438
				l-4.666,0.062l-0.546-4.784L507.985,273.383L507.985,273.383z"/>
			<path id="somaliland_7_" fill="#E0DABA" d="M550.44,262.509l6.602,4.499l1.949-0.1l16.392-5.633l1.857,6.014l-1.305,5.052
				l-3.541,2.823l-8.855-0.572l-12.655-7.776L550.44,262.509L550.44,262.509z"/>
			<path id="somalia_7_" fill="#E0DABA" d="M576.698,260.911l7.066-2.718l2.51,1.503l-0.266,6.28l-6.528,18.574l-35.267,37.804
				l-4.1-2.816l-0.281-15.956l5.312-6.097l11.255-3.479l16.525-17.444l4.308-3.854l1.221-5.628L576.698,260.911L576.698,260.911z"/>
			<path id="centrafrique_7_" fill="#B7AD84" d="M420.921,293.273l7.541,8.153l2.975-3.849l4.735,0.189l1.028-3.753l4.652-2.908
				l9.676,6.67l5.578-5.54l21.664,0.953l-20.089-20.74l2.689-1.68l0.377-3.653l-4.562-2.156h-6.71l-10.783,10.693l-0.37,4.396
				l-8.551-0.273l-0.274,1.876l-5.577-0.563l-5.033,9.564L420.921,293.273L420.921,293.273z"/>
			<path id="gabon_7_" fill="#B7AD84" d="M405.93,307.154l-0.195,4.033l-9.118-0.199l-5.586,10.799l13.121,14.357l3.25-2.717
				l-0.095-2.824l-2.235-1.029V327.6l5.028-3.191l4.465,3.388l4.938,0.092l-0.093-16.971l-7.816-0.38l-0.101-3.562L405.93,307.154
				L405.93,307.154z"/>
			<path id="equatorial_guinea_7_" fill="#E0DABA" d="M397.188,307.252l-0.089,2.243l7.342,0.379l-0.096-2.538L397.188,307.252
				L397.188,307.252z"/>
			<path id="congo_7_" fill="#B7AD84" d="M413.385,306.979l-0.099,2.35l7.733,0.191l0.275,20.084l-7.067-0.188l-4.094-3.19
				l-3.17,1.785l-0.139,0.893l1.626,0.785l0.474,4.129l-4.373,3.754l0.938,1.965l4.843-3.746h2.33l0.737,2.248l3.075,1.312
				l9.863-8.351l-0.195-6.104l2.057-4.969l6.326-4.689l1.69-15.877l-4.482,0.019l-5.213,7.143L413.385,306.979L413.385,306.979z"/>
			<path id="cabinda_7_" fill="#E0DABA" d="M406.192,340.497l2.812,3.65l3.645-3.441l-1.068-3.577l-0.911-0.062L406.192,340.497
				L406.192,340.497z"/>
			<path id="drc_7_" fill="#2A1810" d="M410.764,344.508l16.682-0.3l3.373,4.81l-0.126,3.541l1.247,1.137h8.271l2.378-4.678h3.384
				l1.374,1.389l4.643-0.127l1.378,16.312l8.021,0.258v1.26l21.562,9.73l1.012,1.893h4.507l-0.503-6.83l-8.151-3.918l0.505-5.178
				l3.506-8.219l8.031-0.261l-6.902-22.885l0.123-9.723l10.907-17.059l0.127-2.394l-1.634-0.889l0.069-4.628l-1.987-0.184l-2-2.557
				l-32.924-1.488l-6.036,5.877l-9.877-6.511l-3.479,2.142l-2.524,21.249l-6.249,4.82l-1.87,4.274l0.343,6.324l-11.26,9.213
				l-2.994-1.364l0.408,1.762L410.764,344.508L410.764,344.508z"/>
			<path id="rwanda_7_" fill="#E0DABA" d="M489.114,318.92l4.544,4.204l-0.196,4.474l-7.053,0.151v-4.952L489.114,318.92
				L489.114,318.92z"/>
			<path id="burundi_7_" fill="#B7AD84" d="M486.512,329.131l6.901-0.146l-1.792,6.051l-1.748,1.523h-2.138l-1.521-4.092
				L486.512,329.131L486.512,329.131z"/>
			<path id="uganda_7_" fill="#E0DABA" d="M489.882,317.607l4.91,4.596l3.071-1.955l8.312-1.356l1.418,0.145l0.539-3.157
				l4.695-9.871l-3.951-8.215l-12.786,0.084l-0.087,3.379l1.712,1.649l-0.26,3.38L489.882,317.607L489.882,317.607z"/>
			<path id="kenya_7_" fill="#E0DABA" d="M510.149,297.271l4.311,8.396l-5.16,10.827l-0.672,3.281l25.758,15.941l7.992-12.554
				l-4.041-3.289l-0.074-16.544l5.053-5.531l-8.067,2.677l-6.101,0.084l-9.535-8.057l-3.011-1.298l-5.582,0.519l-0.983,1.648
				L510.149,297.271L510.149,297.271z"/>
			<path id="tanzania_7_" fill="#E0DABA" d="M509.737,369.924l28.249-3.463l-6.358-12.289l-0.341-11.785l2.062-5.629l-26.884-16.898
				l-8.434,1.396l-2.931,2.168l-0.244,4.938l-1.893,6.836l-1.983,2.363l-2.827,0.246l5.429,18.795l8.845,4.152l6.094,0.184
				L509.737,369.924L509.737,369.924z"/>
			<path id="zambia_7_" fill="#E0DABA" d="M451.475,391.422l5.129,7.112l7.942,0.496l2.802,1.549l8.315,0.091l7.175-10.058
				l20.017-8.959l1.747-7.891l-2.327-11.314l-10.447-5.953l-6.967,0.48l-3.495,7.715l0.106,3.506l8.211,3.994l0.496,8.693
				l-7.077,0.389l-1.736-2.938l-19.642-8.38l-0.581,6.439l-9.278,0.291L451.475,391.422L451.475,391.422z"/>
			<path id="angola_7_" fill="#E0DABA" d="M409.531,346.124l5.518,20.597l-0.125,6.51l-8.074,8.668l-1.217,14.096l31.058,0.273
				l10.097,3.664l8.332-1.084l-4.849-6.082l0.007-17.383l9.547-0.404v-6.777l-7.745-0.327l-1.55-16.058l-3.266,0.051l-1.763-1.584
				l-1.933,0.093l-2.549,4.961h-9.839l-2.282-2.306l0.683-3.246l-2.683-3.932L409.531,346.124L409.531,346.124z"/>
			<path id="malawi_7_" fill="#E0DABA" d="M504.213,382.846l5.036,5.258l-0.1,6.73l0.97,2.838l6.682-7.22l-0.775-9.18l-3.562-2.731
				l-3.189-16.099l-5.521-0.201l2.514,11.605L504.213,382.846L504.213,382.846z"/>
			<path id="mozambique_7_" fill="#E0DABA" d="M494.528,437.674l4.346,3.602l10.258-6.242l1.654-9.278v-15.308l16.44-13.461
				l2.824,0.09l9.958-9.561l-1.549-19.707l-26.423,3.338l0.789,5.945l4.55,3.51l1.057,10.736l-8.896,8.692l-2.137-4.877l0.39-6.44
				l-5.128-5.562l-12.587,5.861l11.71,5.951l0.396,17.36l-7.753,11.515L494.528,437.674L494.528,437.674z"/>
			<path id="zimbabwe_7_" fill="#E0DABA" d="M467.828,403.717l14.507,16.391l11.134,2.832l7.456-11.693l-0.576-15.504l-12.106-6.25
				l-4.55,2.054l-6.771,10.34l-9.374-0.092L467.828,403.717L467.828,403.717z"/>
			<path id="namibia_7_" fill="#E0DABA" d="M422.362,451.715l5.427,0.389l3.182,3.221l7.54,0.084l1.86-21.45v-14.05l4.831-0.969
				l1.848-14.729l12.29-0.39l4.349-3.608l-7.359-0.289l-9.959,1.364l-10.742-3.905h-30.186l0.768,8.584l10.064,14.819l-1.741,7.607
				l0.093,3.99L422.362,451.715L422.362,451.715z"/>
			<path id="botswana_7_" fill="#E0DABA" d="M441.712,434.354l3.469,1.061l-0.481,9.951l3.571,0.488l8.218-7.41l9.872,1.07
				l2.621-6.642l12.484-11.407l-14.996-17.261l-0.19-2.84l-1.656-0.479l-4.548,4.188l-11.805,0.289l-1.64,14.729l-4.642,1.067
				L441.712,434.354L441.712,434.354z"/>
			<path id="swaziland_7_" fill="#E0DABA" d="M494.049,438.834l-4.061,0.68l-1.747,4.768l3.098,2.84h3.771l3.189-4.586
				L494.049,438.834L494.049,438.834z"/>
			<path id="lesotho_7_" fill="#E0DABA" d="M472.269,457.262l4.938-3.81l2.327,0.107l2.815,3.504l-0.282,3.502l-4.739,1.756v1.357
				l-5.234-0.283l-1.251-3.822L472.269,457.262L472.269,457.262z"/>
			<path id="south_africa_7_" fill="#E0DABA" d="M483.182,422.061l-12.769,11.805l-3.044,7.297l-10.126-1.26l-8.425,7.492
				l-5.598-0.549l0.45-10.363l-1.987-0.693l-1.39,21.185l-9.936-0.101l-2.983-3.518l-4.389-0.045l3.999,11.469l7.127,6.738
				l-5.094,5.942l3.297,7.441l7.638,2.906l6.088-5.174l17.413,0.1l1.243-1.557l7.73-1.365l26.154-26.039l-0.088-8.201l-2.802,3.625
				h-4.196l-5.09-4.272l2.586-6.449l4.45-0.9l-0.405-13.231L483.182,422.061L483.182,422.061z M477.065,451.988l2.436-0.098
				l3.971,4.303l-0.114,4.99l-4.64,2.344l-0.289,1.664l-7.086,0.076l-2.218-5.35l2.03-3.906L477.065,451.988L477.065,451.988z"/>
			<path id="madagascar_7_" fill="#2A1810" d="M577.226,372.357l-3.435,8.184l-5.906,10.433l-10.34,0.731l-4.438,5.211l0.743,15.89
				l-6.402,7.455l0.744,12.645l5.415,6.197l6.402-0.742l6.405-4.723l-1.465-7.439l14.763-25.571l-2.962-3.222l2.962-6.203
				l3.204,0.992l0.984-2.479l-2.961-12.652l-1.725-5.203L577.226,372.357L577.226,372.357z"/>
		</g>
	</g>
	<text transform="matrix(1 0 0 1 344.7307 188.6213)" fill="#E0DABA" font-family="'Rockwell'" font-size="10">ALGÉRIE</text>
	<text transform="matrix(1 0 0 1 277.1311 230.8606)" fill="#E0DABA" font-family="'Rockwell'" font-size="8">MAURITANIE</text>
	<text transform="matrix(1 0 0 1 191.0652 262.2834)" fill="#2A1810" font-family="'Rockwell'" font-size="10">BURKINA FASO</text>
	<text transform="matrix(1 0 0 1 284.4924 268.9319)" fill="#2A1810" font-family="'Rockwell'" font-size="8">GUINÉE </text>
	<text transform="matrix(1 0 0 1 314.3547 332.7727)" fill="#2A1810" font-family="'Rockwell'" font-size="10">CAMEROUN</text>
	<text transform="matrix(1 0 0 1 332.5374 355.8567)" fill="#2A1810" font-family="'Rockwell'" font-size="10">CONGO</text>
	<text transform="matrix(1 0 0 1 307.4055 367.8567)" fill="#2A1810" font-family="'Rockwell'" font-size="10">BRAZZAVILLE</text>
	<text transform="matrix(1 0 0 1 381.5461 322.2385)" fill="#2A1810" font-family="'Rockwell'" font-size="10">GABON</text>
	<text transform="matrix(1 0 0 1 346.1233 304.1467)" fill="#2A1810" font-family="'Rockwell'" font-size="10">TOGO</text>
	<text transform="matrix(1 0 0 1 441.7107 325.5608)" fill="#E0DABA" font-family="'Rockwell'" font-size="10">CONGO</text>
	<text transform="matrix(1 0 0 1 441.7107 337.5608)" fill="#E0DABA" font-family="'Rockwell'" font-size="10">    RDC</text>
	<text transform="matrix(1 0 0 1 581.1814 418.0393)" fill="#2A1810" font-family="'Rockwell'" font-size="10">MADAGASCAR</text>
	<text transform="matrix(1 0 0 1 581.1814 335.7161)" fill="#2A1810" font-family="'Rockwell'" font-size="10">BURUNDI</text>
	<text transform="matrix(1 0 0 1 186.8757 286.4397)" fill="#2A1810" font-family="'Rockwell'" font-size="10">CÔTE D’IVOIRE</text>
	<text transform="matrix(1 0 0 1 383.1428 235.9299)" fill="#2A1810" font-family="'Rockwell'" font-size="10">NIGER</text>
	<text transform="matrix(1 0 0 1 421.9275 290.0266)" fill="#2A1810" font-family="'Rockwell'" font-size="10">CENTRAFRIQUE</text>
	<text transform="matrix(1 0 0 1 334.5286 232.6711)" fill="#E0DABA" font-family="'Rockwell'" font-size="10">MALI</text>
	<text transform="matrix(1 0 0 1 227.4709 144.0901)" fill="#2A1810" font-family="'Rockwell'" font-size="10">MAROC</text>
	<text transform="matrix(1 0 0 1 422.988 134.8088)" fill="#2A1810" font-family="'Rockwell'" font-size="10">TUNISIE</text>
	<text transform="matrix(1 0 0 1 215.1228 242.0442)" fill="#2A1810" font-family="'Rockwell'" font-size="10">SÉNÉGAL</text>
	
		<line fill="none" stroke="#2A1810" stroke-width="0.6797" stroke-miterlimit="10" x1="267.463" y1="259.583" x2="347.621" y2="259.583"/>
	
		<line fill="none" stroke="#2A1810" stroke-width="0.575" stroke-miterlimit="10" x1="267.621" y1="283.367" x2="324.992" y2="283.367"/>
	
		<line fill="none" stroke="#2A1810" stroke-width="0.6797" stroke-miterlimit="10" x1="371.381" y1="318.92" x2="404.193" y2="295.551"/>
	
		<line fill="none" stroke="#B7AD84" stroke-width="0.6797" stroke-miterlimit="10" x1="375.662" y1="359.758" x2="408.475" y2="336.387"/>
	
		<line fill="none" stroke="#2A1810" stroke-width="0.575" stroke-miterlimit="10" x1="565.677" y1="415.32" x2="577.24" y2="415.32"/>
	<polyline fill="none" stroke="#2A1810" stroke-width="0.6797" stroke-miterlimit="10" points="267.463,140.872 293.911,140.872 
		316.578,166.019 	"/>
	<polyline fill="none" stroke="#2A1810" stroke-width="0.6797" stroke-miterlimit="10" points="418.872,132.195 404.219,132.195 
		391.661,157.344 	"/>
	
		<line fill="none" stroke="#2A1810" stroke-width="0.575" stroke-miterlimit="10" x1="265.472" y1="239.619" x2="284.986" y2="246.358"/>
	
		<line fill="none" stroke="#2A1810" stroke-width="0.575" stroke-miterlimit="10" x1="357.785" y1="285.805" x2="357.785" y2="294.252"/>
	
		<line fill="none" stroke="#2A1810" stroke-width="0.6797" stroke-miterlimit="10" x1="488.553" y1="333.213" x2="573.499" y2="333.213"/>
	<rect x="33.884" y="397.825" fill="#2A1810" width="10.727" height="27.576"/>
	<text transform="matrix(1 0 0 1 54.4661 408.01)" fill="#010101" font-family="'Rockwell'" font-size="12">LES Unités-Pilote </text>
	<text transform="matrix(1 0 0 1 54.4661 422.4094)" fill="#010101" font-family="'Rockwell'" font-size="12">opérationelles</text>
	<rect x="33.738" y="444.831" fill="#B7AD84" width="10.726" height="27.576"/>
	<text transform="matrix(1 0 0 1 53.8508 448.01)" fill="#010101" font-family="'Rockwell'" font-size="12">LES Unités-Pilote </text>
	<text transform="matrix(1 0 0 1 53.8508 462.4104)" fill="#010101" font-family="'Rockwell'" font-size="12">EN FORMATION ou </text>
	<text transform="matrix(1 0 0 1 53.8508 476.8108)" fill="#010101" font-family="'Rockwell'" font-size="12">en PRéPARATION</text>
</g>
<g id="Layer_2">
</g>
</svg>
