<?xml version="1.0" encoding="utf-8"?>
<!-- Generator: Adobe Illustrator 16.0.0, SVG Export Plug-In . SVG Version: 6.00 Build 0)  -->
<!DOCTYPE svg PUBLIC "-//W3C//DTD SVG 1.1//EN" "http://www.w3.org/Graphics/SVG/1.1/DTD/svg11.dtd">
<svg version="1.1" id="Layer_1" xmlns="http://www.w3.org/2000/svg" xmlns:xlink="http://www.w3.org/1999/xlink" x="0px" y="0px"
	 width="841.891px" height="375" viewBox="0 115.139 841.891 375" enable-background="new 0 115.139 841.891 375"
	 xml:space="preserve">
<g id="Layer_1_1_">
	<g id="Calque_3">
		<g>
			<path id="algeria_7_" fill="#2A1810" d="M353.6,136.055l-5.988-2.012l-24.964,4.688l-5.436,4.131l3.321,17.161l-9.92,0.402
				l-5.969,9.6l-14.217,3.413l0.045,6.987l46.816,35.806l7.989,0.679l26.618-20.809l-2.663-3.353l-5.001-0.672l-2.995-5.031v-20.809
				l-1.997-2.011l0.336-5.375l-5.323-5.367l-0.659-5.708l2.324-1.675l-1-6.043L353.6,136.055L353.6,136.055z"/>
			<path id="morocco_7_" fill="#2A1810" d="M269.393,178.672l-17.303,28.518l16.978-0.339l0.669-8.382h4.317v-11.415h14.98
				l0.332-14.761l14.322-3.352l6-9.736l9.317-0.34l-3.013-15.769l0,0h-16.983l-3.314,7.382l-7.665,3.697l-6.314,17.115
				L269.393,178.672"/>
			<path id="mauretania_7_" fill="#2A1810" d="M252.207,208.368l3.208,4.185l-0.662,18.119l4.661-3.348l3.321-0.675l4.657,1.679
				l5.322,7.387l5-3.351l24.297-0.344l-6.003-40.602l6.443-0.035l-11.994-9.188l0.011,5.97l-15.18,0.015l-0.077,11.402l-4.369-0.021
				l-0.555,8.413L252.207,208.368L252.207,208.368z"/>
			<path id="senegal_7_" fill="#2A1810" d="M259.881,228.453l-5.791,4.21l-1.324,2.353l-0.405,2.354l2.129,1.53l7.111-0.104
				l4.575-1.233l0.52,2.253l-0.417,2.97l4.367,2.145l0.912,1.031l5.791,0.209l0.201-2.562l-5.287-6.355l-5.895-7.985l-3.658-1.53
				L259.881,228.453L259.881,228.453z"/>
			<path id="gambia_7_" fill="#E0DABA" d="M255.135,240.249l-0.194,1.63l10.173-0.146l0.515-1.512l-0.217-1.533l-2.926,1.185
				L255.135,240.249L255.135,240.249z"/>
			<path id="casamance_7_" fill="#E0DABA" d="M254.985,243.013l1.829,4.428l1.012-2.733l12.365,1.291l-5.356-2.746L254.985,243.013
				L254.985,243.013z"/>
			<path id="bissau_7_" fill="#E0DABA" d="M257.644,249.356l2.061,4.07l5.777-4.977l0.061-1.531l-6.809-0.985L257.644,249.356
				L257.644,249.356z"/>
			<path id="guinee_7_" fill="#B7AD84" d="M260.322,254.366l4.474,6.883l5.816-5.055l5.967-0.271l4.971,6.603l4.216,2.783
				l1.592-3.089l1.412-0.794l-0.104-6.797l-2.809-8.055l-8.614,0.955l-10.66-0.852l-0.058,2.736L260.322,254.366L260.322,254.366z"
				/>
			<path id="sierra_leone_7_" fill="#E0DABA" d="M265.485,261.999l8.306,8.039l5.923-7.199l-3.703-5.81l-5.103,0.517
				L265.485,261.999L265.485,261.999z"/>
			<path id="liberia_7_" fill="#E0DABA" d="M274.653,270.911l16.139,10.799l-0.378-8.177l-4.881-5.75l-4.757-4.22L274.653,270.911
				L274.653,270.911z"/>
			<path id="ivoire_7_" fill="#2A1810" stroke="#2A1810" stroke-width="0.6177" stroke-miterlimit="10" d="M292.147,282.028
				l6.292-4.452l7.822-1.366l7.981,1.717l-4.073-6.161l-1.191-3.767l1.191-11.135l-7.13,0.335l-3.232-3.088l-6.794,0.185
				l-3.233,0.51l0.341,7.532l-1.707,0.697l-2.039,3.763l5.264,6.163L292.147,282.028L292.147,282.028z"/>
			<path id="mali_7_" fill="#2A1810" d="M273.614,236.574l4.524-3.106l25.162-0.146l-5.818-40.504l6.644-0.19l32.153,24.543
				l4.321,0.618l-1.63,13.65l-20.212,1.837l-15.6,11.647l-2.837,7.969l-10.832,0.454l-2.761-7.955l-8.309,0.586l0.321-2.604
				L273.614,236.574L273.614,236.574z"/>
			<path id="burkina_7_" fill="#2A1810" d="M319.375,234.279l5.347-0.427l8.776,12.414l-8.143,6.149l-5.894-1.521l-7.924,0.1
				l-1.275,4.65l-6.646,0.325l-1.828-2.489l2.357-7.555L319.375,234.279L319.375,234.279z"/>
			<path id="niger_7_" fill="#B7AD84" d="M334.515,245.635l3.749-0.088l3.386-5.08l5.667-1.013l6.041,3.687l12.893,0.366
				l9.973-4.057l3.746-3.224l0.284-4.238l6.95-7.016l1.838-15.489l-4.569-9.585l-11.709-2.858l-27.074,21.122l-3.835-0.371
				l-1.646,14.666l-13.818,1.382L334.515,245.635L334.515,245.635z"/>
			<path id="ghana_7_" fill="#E0DABA" d="M310.186,267.762l1.646,3.871l4.293,6.735l2.378-0.086l6.499-3.69l-0.46-21.021
				l-5.027-1.471l-7.039,0.194L310.186,267.762L310.186,267.762z"/>
			<path id="togo_7_" fill="#2A1810" stroke="#2A1810" stroke-width="0.6177" stroke-miterlimit="10" d="M326.179,273.941
				l3.936-2.309l-0.087-15.223l-2.562-4.146l-1.644,1.386L326.179,273.941L326.179,273.941z"/>
			<path id="benin_7_" fill="#E0DABA" d="M331.303,271.354h3.115l0.177-8.849l3.942-5.725l-0.173-9.956l-3.572-0.084l-6.129,4.792
				l2.552,4.883L331.303,271.354L331.303,271.354z"/>
			<path id="nigeria_7_" fill="#E0DABA" d="M335.513,271.18l5.756,0.277l6.956,7.755l3.381,0.919l2.645-1.286l4.03-0.562
				l1.368-5.618l5.485-3.603l5.936-0.282l10.875-20.021l-0.173-4.516l-5.028-3.871l-10.055,4.433l-13.448-0.191l-6.408-4.061
				l-4.573,1.012l-2.379,4.147l-0.176,11.706l-3.84,5.445L335.513,271.18L335.513,271.18z"/>
			<path id="tunisia_7_" fill="#2A1810" d="M355.122,135.819l8.128-3.274l2.671,1.733l0.098,2.115l-1.246,1.63l0.191,2.897
				l1.252,0.68v5.199l-1.443,2.413l0.191,1.542l5.451,1.927l-4.396,6.837l-1.721-0.099l-0.291,5.504l-1.912,0.29l-1.628-1.442
				l0.377-5.589l-5.348-5.202l-0.676-4.528l2.584-2.031L355.122,135.819L355.122,135.819z"/>
			<path id="libya_7_" fill="#E0DABA" d="M362.679,166.257l2.289-0.377l0.68-5.295h1.147l4.686-7.706l11.569,3.363l3.161,4.917
				l11.379,5.206l5.919-2.503l-0.573-2.5l-2.583-2.497l0.283-1.741l4.21-3.557h8.322l3.164,4.233l6.686,0.974l0.864,54.247
				l-4.966-0.19l-30.01-15.617l-3.253,1.841l-12.336-3.092l-3.345-4.42l-4.889-0.688l-2.482-4.424L362.679,166.257L362.679,166.257z
				"/>
			<path id="egypt_7_" fill="#E0DABA" d="M424.233,158.951l3.928,0.1l7.65,2.119l3.622,0.1l4.49-3.763h2.114l3.822,2.118h4.834
				l0.861-0.061l3.055,8.793l0.867,2.837l0.812,4.251l-1.443,1.054l-2.48-1.249l-2.867-9.355l-2.584-0.194l-0.194,3.18l1.714,5.496
				l13.773,17.059l0.296,7.328l-4.015,4.63l-37.684-0.424L424.233,158.951L424.233,158.951z"/>
			<path id="chad_7_" fill="#E0DABA" d="M381.403,236.806l0.191-4.338l6.97-6.779l1.862-16.646l-4.645-8.878l3.253-1.665
				l31.457,16.399l-0.194,16.089l-5.545,4.722v8.295l3.624,7.029h-6.406l-10.609,10.5l-0.283,3.179l-7.83-0.103l-0.1,1.436
				l-4.477-0.588l-3.055-5.78l-2.291-1.13l0.291-1.768l2.885-2.209v-10.32l-3.989-0.617l-4.805-3.576L381.403,236.806
				L381.403,236.806L381.403,236.806z"/>
			<path id="sudan_7_" fill="#E0DABA" d="M421.62,231.56l0.261-17.401l3.624,0.104l-0.416-9.662l37.924,0.333l5.422-5.47
				l11.705,18.722l-6.415,7.56v11.54l-10.077,21.693l-3.472,1.533l1.102,6.041h4.32l5.866,8.519l-4.703,0.6l-1.206,2.185
				l-0.118,3.169l-14.111-0.257l-1.436-2.191l-9.866-0.554l-18.104-18.65l1.803-1.088l0.48-4.376l-4.332-2.558l-3.957-7.816
				l0.226-7.262L421.62,231.56L421.62,231.56z"/>
			<path id="cameroon_7_" fill="#2A1810" d="M359.398,278.401l4.734,4.349l-0.337,6.74l25.956-0.603l2.119-2.382l-7.442-8.021
				l-1.102-2.892l4.736-8.872l-3.218-5.882l-2.704-1.456V256.4l3.125-2.046l0.177-9.296l-2.48-0.278l-0.045,4.881l-10.913,20.373
				l-6.668,0.333l-4.574,3.147L359.398,278.401L359.398,278.401z"/>
			<path id="eritrea_7_" fill="#E0DABA" d="M475.363,234.896l-0.366-8.662l5.817-6.794l1.571,1.204l2.875,9.592l13.745,10.25
				l-2.49,3.08l-10.076-8.661h-11.077L475.363,234.896L475.363,234.896z"/>
			<path id="djibouti_7_" fill="#E0DABA" d="M497.071,244.959l-0.824,4.939l5.812-0.091l0.096-7.265l-2.144-1.307L497.071,244.959
				L497.071,244.959z"/>
			<path id="ethiopia_7_" fill="#E0DABA" d="M464.747,259.984l10.704-23.823l10.622,0.059l9.427,8.192l-0.662,6.75h7.316l0.74,4.062
				l11.819,7.074l7.29,0.367l-13.866,14.898l-19.024,5.867h-4.722l-8.408-7.174l-3.326-1.398l-6.439-9.486l-4.241,0.056
				l-0.495-4.348L464.747,259.984L464.747,259.984z"/>
			<path id="somaliland_7_" fill="#E0DABA" d="M503.331,250.101l6,4.089l1.771-0.091L526,248.98l1.688,5.465l-1.187,4.591
				l-3.219,2.565l-8.048-0.52l-11.5-7.067L503.331,250.101L503.331,250.101z"/>
			<path id="somalia_7_" fill="#E0DABA" d="M527.196,248.649l6.422-2.47l2.281,1.366l-0.242,5.708l-5.933,16.88l-32.051,34.359
				l-3.728-2.561l-0.254-14.501l4.826-5.541l10.229-3.162l15.019-15.854l3.916-3.502l1.108-5.115L527.196,248.649L527.196,248.649z"
				/>
			<path id="centrafrique_7_" fill="#B7AD84" d="M385.621,278.061l6.854,7.41l2.704-3.499l4.304,0.172l0.933-3.411l4.229-2.643
				l8.793,6.062l5.07-5.035l19.688,0.866l-18.257-18.849l2.443-1.526l0.343-3.32l-4.146-1.96h-6.099l-9.799,9.719l-0.336,3.995
				l-7.771-0.248l-0.25,1.705l-5.068-0.512l-4.574,8.692L385.621,278.061L385.621,278.061z"/>
			<path id="gabon_7_" fill="#B7AD84" d="M371.997,290.676l-0.178,3.666l-8.286-0.181l-5.077,9.815l11.925,13.047l2.954-2.469
				l-0.086-2.565l-2.032-0.937v-1.793l4.57-2.901l4.058,3.08l4.488,0.084l-0.085-15.424l-7.103-0.346l-0.092-3.237L371.997,290.676
				L371.997,290.676z"/>
			<path id="equatorial_guinea_7_" fill="#E0DABA" d="M364.052,290.765l-0.081,2.038l6.673,0.345l-0.087-2.306L364.052,290.765
				L364.052,290.765z"/>
			<path id="congo_7_" fill="#B7AD84" d="M378.772,290.517l-0.09,2.135l7.028,0.174l0.25,18.253l-6.423-0.172l-3.721-2.899
				l-2.881,1.623l-0.127,0.811l1.478,0.714l0.432,3.753l-3.975,3.411l0.852,1.786l4.401-3.404h2.118l0.67,2.043l2.795,1.193
				l8.964-7.591l-0.177-5.547l1.869-4.516l5.75-4.262l1.536-14.429l-4.074,0.017l-4.737,6.492L378.772,290.517L378.772,290.517z"/>
			<path id="cabinda_7_" fill="#E0DABA" d="M372.235,320.979l2.557,3.317l3.312-3.128l-0.971-3.25l-0.827-0.057L372.235,320.979
				L372.235,320.979z"/>
			<path id="drc_7_" fill="#2A1810" d="M376.39,324.625l15.161-0.272l3.065,4.371l-0.115,3.219l1.133,1.032h7.518l2.161-4.251h3.076
				l1.249,1.263l4.219-0.116l1.252,14.825l7.29,0.234v1.145l19.596,8.844l0.921,1.721h4.095l-0.456-6.208l-7.408-3.562l0.458-4.705
				l3.187-7.47l7.299-0.237l-6.272-20.799l0.112-8.836l9.912-15.504l0.115-2.175l-1.484-0.809l0.063-4.206l-1.807-0.167
				l-1.817-2.325l-29.923-1.352l-5.486,5.341l-8.976-5.917l-3.162,1.947l-2.293,19.312l-5.68,4.38l-1.7,3.885l0.312,5.747
				l-10.233,8.373l-2.721-1.238l0.371,1.601L376.39,324.625L376.39,324.625z"/>
			<path id="rwanda_7_" fill="#E0DABA" d="M447.596,301.37l4.13,3.82l-0.177,4.066l-6.411,0.138v-4.501L447.596,301.37
				L447.596,301.37z"/>
			<path id="burundi_7_" fill="#B7AD84" d="M445.233,310.649l6.271-0.132l-1.629,5.498l-1.588,1.386h-1.944l-1.381-3.72
				L445.233,310.649L445.233,310.649z"/>
			<path id="uganda_7_" fill="#E0DABA" d="M448.295,300.176l4.462,4.178l2.79-1.777l7.556-1.232l1.289,0.132l0.489-2.868
				l4.266-8.973l-3.589-7.465l-11.62,0.076l-0.08,3.071l1.557,1.499l-0.237,3.072L448.295,300.176L448.295,300.176z"/>
			<path id="kenya_7_" fill="#E0DABA" d="M466.713,281.694l3.919,7.63l-4.689,9.84l-0.611,2.982l23.41,14.488l7.264-11.41
				l-3.673-2.989l-0.067-15.036l4.592-5.027l-7.331,2.434l-5.545,0.076l-8.666-7.323l-2.735-1.18l-5.073,0.472l-0.895,1.497
				L466.713,281.694L466.713,281.694z"/>
			<path id="tanzania_7_" fill="#E0DABA" d="M466.339,347.723l25.674-3.146l-5.777-11.169l-0.312-10.711l1.875-5.115l-24.433-15.358
				l-7.666,1.27l-2.663,1.97l-0.222,4.487l-1.72,6.213l-1.804,2.148l-2.569,0.224l4.935,17.081l8.039,3.773l5.538,0.167
				L466.339,347.723L466.339,347.723z"/>
			<path id="zambia_7_" fill="#E0DABA" d="M413.39,367.262l4.661,6.462l7.218,0.451l2.547,1.407l7.557,0.084l6.521-9.142
				l18.191-8.143l1.587-7.171l-2.114-10.283l-9.495-5.41l-6.331,0.437l-3.177,7.012l0.097,3.187l7.463,3.629l0.45,7.901
				l-6.432,0.354l-1.578-2.67l-17.851-7.617l-0.528,5.853l-8.433,0.266L413.39,367.262L413.39,367.262z"/>
			<path id="angola_7_" fill="#E0DABA" d="M375.269,326.093l5.015,18.72l-0.113,5.916l-7.338,7.878l-1.105,12.812l28.226,0.248
				l9.177,3.329l7.572-0.984l-4.407-5.527l0.006-15.799l8.676-0.367v-6.159l-7.039-0.297l-1.409-14.594l-2.968,0.046l-1.602-1.44
				l-1.758,0.086l-2.316,4.509h-8.942l-2.074-2.097l0.62-2.95l-2.438-3.573L375.269,326.093L375.269,326.093z"/>
			<path id="malawi_7_" fill="#E0DABA" d="M461.32,359.468l4.575,4.778l-0.09,6.117l0.882,2.578l6.073-6.562l-0.705-8.343
				l-3.236-2.481l-2.899-14.632l-5.017-0.183l2.285,10.547L461.32,359.468L461.32,359.468z"/>
			<path id="mozambique_7_" fill="#E0DABA" d="M452.517,409.297l3.949,3.273l9.323-5.674l1.503-8.431v-13.913l14.941-12.233
				l2.567,0.082l9.05-8.689l-1.407-17.911l-24.016,3.034l0.718,5.404l4.136,3.189l0.96,9.757l-8.085,7.899l-1.942-4.434l0.355-5.852
				l-4.661-5.056l-11.439,5.328l10.643,5.407l0.36,15.777l-7.047,10.466L452.517,409.297L452.517,409.297z"/>
			<path id="zimbabwe_7_" fill="#E0DABA" d="M428.251,378.436l13.186,14.896l10.118,2.573l6.776-10.627l-0.524-14.09l-11.002-5.681
				l-4.135,1.868l-6.153,9.396l-8.52-0.083L428.251,378.436L428.251,378.436z"/>
			<path id="namibia_7_" fill="#E0DABA" d="M386.93,422.058l4.932,0.353l2.893,2.927l6.853,0.077l1.689-19.494v-12.77l4.391-0.881
				l1.68-13.385l11.169-0.356l3.952-3.277l-6.688-0.264l-9.051,1.239l-9.762-3.548h-27.435l0.698,7.801l9.146,13.468l-1.582,6.914
				l0.085,3.626L386.93,422.058L386.93,422.058z"/>
			<path id="botswana_7_" fill="#E0DABA" d="M404.517,406.279l3.153,0.964l-0.438,9.044l3.246,0.443l7.469-6.733l8.972,0.972
				l2.382-6.036l11.347-10.367l-13.63-15.688l-0.173-2.581l-1.505-0.435l-4.133,3.806l-10.729,0.263l-1.49,13.387l-4.22,0.969
				L404.517,406.279L404.517,406.279z"/>
			<path id="swaziland_7_" fill="#E0DABA" d="M452.082,410.351l-3.691,0.617l-1.588,4.334l2.816,2.58h3.426l2.899-4.168
				L452.082,410.351L452.082,410.351z"/>
			<path id="lesotho_7_" fill="#E0DABA" d="M432.287,427.099l4.488-3.463l2.114,0.098l2.559,3.185l-0.256,3.182l-4.308,1.596v1.234
				l-4.756-0.258l-1.138-3.474L432.287,427.099L432.287,427.099z"/>
			<path id="south_africa_7_" fill="#E0DABA" d="M442.205,395.107L430.6,405.836l-2.766,6.632l-9.203-1.146l-7.656,6.81
				l-5.087-0.499l0.409-9.418l-1.806-0.631l-1.263,19.254l-9.031-0.093l-2.711-3.196l-3.988-0.041l3.634,10.424l6.477,6.124
				l-4.629,5.398l2.997,6.764l6.941,2.642l5.533-4.702l15.825,0.09l1.13-1.414l7.025-1.24l23.77-23.666l-0.08-7.453l-2.546,3.295
				h-3.813l-4.626-3.882l2.35-5.861l4.045-0.818l-0.368-12.024L442.205,395.107L442.205,395.107z M436.647,422.305l2.215-0.089
				l3.607,3.91l-0.104,4.536l-4.217,2.13l-0.263,1.512l-6.439,0.069l-2.016-4.862l1.844-3.549L436.647,422.305L436.647,422.305z"/>
			<path id="madagascar_7_" fill="#2A1810" d="M527.675,349.934l-3.121,7.438l-5.367,9.482l-9.397,0.664l-4.033,4.735l0.675,14.442
				l-5.818,6.774l0.676,11.493l4.922,5.632l5.818-0.675l5.82-4.292l-1.331-6.761l13.417-23.239l-2.691-2.93l2.691-5.637l2.911,0.901
				l0.895-2.253l-2.69-11.498l-1.567-4.729L527.675,349.934L527.675,349.934z"/>
		</g>
	</g>
	<text transform="matrix(1 0 0 1 316.3767 182.95)" fill="#E0DABA" font-family="'Rockwell'" font-size="9.0883">ALGÉRIE</text>
	<text transform="matrix(1 0 0 1 254.9402 221.3386)" fill="#E0DABA" font-family="'Rockwell'" font-size="7.2706">MAURITANIE</text>
	<text transform="matrix(1 0 0 1 176.7214 249.8972)" fill="#2A1810" font-family="'Rockwell'" font-size="9.0883">BURKINA FASO</text>
	<text transform="matrix(1 0 0 1 261.6296 255.9392)" fill="#2A1810" font-family="'Rockwell'" font-size="7.2706">GUINÉE </text>
	<text transform="matrix(1 0 0 1 288.7693 313.9597)" fill="#2A1810" font-family="'Rockwell'" font-size="9.0883">CAMEROUN</text>
	<text transform="matrix(1 0 0 1 305.2957 334.9392)" fill="#2A1810" font-family="'Rockwell'" font-size="9.0883">CONGO</text>
	<text transform="matrix(1 0 0 1 282.4539 345.8445)" fill="#2A1810" font-family="'Rockwell'" font-size="9.0883">BRAZZAVILLE</text>
	<text transform="matrix(1 0 0 1 349.8357 304.3855)" fill="#2A1810" font-family="'Rockwell'" font-size="9.0883">GABON</text>
	<text transform="matrix(1 0 0 1 317.6423 287.9431)" fill="#2A1810" font-family="'Rockwell'" font-size="9.0883">TOGO</text>
	<text transform="matrix(1 0 0 1 404.5144 307.405)" fill="#E0DABA" font-family="'Rockwell'" font-size="9.0883">CONGO</text>
	<text transform="matrix(1 0 0 1 404.5144 318.3113)" fill="#E0DABA" font-family="'Rockwell'" font-size="9.0883">    RDC</text>
	<text transform="matrix(1 0 0 1 531.2688 391.4519)" fill="#2A1810" font-family="'Rockwell'" font-size="9.0883">MADAGASCAR</text>
	<text transform="matrix(1 0 0 1 531.2688 316.6345)" fill="#2A1810" font-family="'Rockwell'" font-size="9.0883">BURUNDI</text>
	<text transform="matrix(1 0 0 1 172.9133 271.8503)" fill="#2A1810" font-family="'Rockwell'" font-size="9.0883">CÔTE D’IVOIRE</text>
	<text transform="matrix(1 0 0 1 351.2869 225.946)" fill="#2A1810" font-family="'Rockwell'" font-size="9.0883">NIGER</text>
	<text transform="matrix(1 0 0 1 386.5349 275.1101)" fill="#2A1810" font-family="'Rockwell'" font-size="9.0883">CENTRAFRIQUE</text>
	<text transform="matrix(1 0 0 1 307.1042 222.9841)" fill="#E0DABA" font-family="'Rockwell'" font-size="9.0883">MALI</text>
	<text transform="matrix(1 0 0 1 209.8074 142.4792)" fill="#2A1810" font-family="'Rockwell'" font-size="9.0883">MAROC</text>
	<text transform="matrix(1 0 0 1 387.4988 134.0437)" fill="#2A1810" font-family="'Rockwell'" font-size="9.0883">TUNISIE</text>
	<text transform="matrix(1 0 0 1 198.5847 231.5027)" fill="#2A1810" font-family="'Rockwell'" font-size="9.0883">SÉNÉGAL</text>
	
		<line fill="none" stroke="#2A1810" stroke-width="0.6177" stroke-miterlimit="10" x1="246.155" y1="247.442" x2="319.005" y2="247.442"/>
	
		<line fill="none" stroke="#2A1810" stroke-width="0.5226" stroke-miterlimit="10" x1="246.298" y1="269.057" x2="298.438" y2="269.057"/>
	
		<line fill="none" stroke="#2A1810" stroke-width="0.6177" stroke-miterlimit="10" x1="340.598" y1="301.37" x2="370.418" y2="280.131"/>
	
		<line fill="none" stroke="#B7AD84" stroke-width="0.6177" stroke-miterlimit="10" x1="344.489" y1="338.485" x2="374.31" y2="317.244"/>
	
		<line fill="none" stroke="#2A1810" stroke-width="0.5226" stroke-miterlimit="10" x1="517.18" y1="388.98" x2="527.689" y2="388.98"/>
	<polyline fill="none" stroke="#2A1810" stroke-width="0.6177" stroke-miterlimit="10" points="246.155,139.554 270.191,139.554 
		290.792,162.408 	"/>
	<polyline fill="none" stroke="#2A1810" stroke-width="0.6177" stroke-miterlimit="10" points="383.759,131.668 370.442,131.668 
		359.03,154.525 	"/>
	
		<line fill="none" stroke="#2A1810" stroke-width="0.5226" stroke-miterlimit="10" x1="244.344" y1="229.298" x2="262.079" y2="235.423"/>
	
		<line fill="none" stroke="#2A1810" stroke-width="0.5226" stroke-miterlimit="10" x1="328.242" y1="271.274" x2="328.242" y2="278.95"/>
	
		<line fill="none" stroke="#2A1810" stroke-width="0.6177" stroke-miterlimit="10" x1="447.087" y1="314.36" x2="524.288" y2="314.36"/>
	<rect x="33.871" y="373.08" fill="#2A1810" width="9.749" height="25.062"/>
	<text transform="matrix(1 0 0 1 52.5759 382.3376)" fill="#010101" font-family="'Rockwell'" font-size="10.906">LES Unités-Pilote </text>
	<text transform="matrix(1 0 0 1 52.5759 395.4236)" fill="#010101" font-family="'Rockwell'" font-size="10.906">opérationelles</text>
	<rect x="33.738" y="415.801" fill="#B7AD84" width="9.749" height="25.062"/>
	<text transform="matrix(1 0 0 1 52.0159 418.6902)" fill="#010101" font-family="'Rockwell'" font-size="10.906">LES Unités-Pilote </text>
	<text transform="matrix(1 0 0 1 52.0159 431.7781)" fill="#010101" font-family="'Rockwell'" font-size="10.906">EN FORMATION ou </text>
	<text transform="matrix(1 0 0 1 52.0159 444.866)" fill="#010101" font-family="'Rockwell'" font-size="10.906">en PRéPARATION</text>
</g>
<g id="Layer_2">
</g>
</svg>
