<?xml version="1.0" encoding="utf-8"?>
<!-- Generator: Adobe Illustrator 16.0.0, SVG Export Plug-In . SVG Version: 6.00 Build 0)  -->
<!DOCTYPE svg PUBLIC "-//W3C//DTD SVG 1.1//EN" "http://www.w3.org/Graphics/SVG/1.1/DTD/svg11.dtd">
<svg version="1.1" id="Layer_1" xmlns="http://www.w3.org/2000/svg" xmlns:xlink="http://www.w3.org/1999/xlink" x="0px" y="0px"
	 width="803px" height="372px" viewBox="90.446 87 803 372" enable-background="new 90.446 87 803 372" xml:space="preserve">
<g>
	<g id="Layer_1_1_">
		<g id="Calque_3">
			<g>
				<path id="algeria_7_" fill="#2A1810" d="M405.67,136.055l-5.988-2.013l-24.964,4.688l-5.436,4.131l3.321,17.161l-9.921,0.401
					l-5.969,9.601l-14.217,3.413l0.045,6.986l46.816,35.807l7.988,0.679l26.619-20.809l-2.664-3.354l-5.001-0.672l-2.995-5.031
					v-20.809l-1.996-2.011l0.336-5.375l-5.323-5.367l-0.659-5.708l2.324-1.675l-1-6.043L405.67,136.055L405.67,136.055z"/>
				<path id="morocco_7_" fill="#2A1810" d="M321.463,178.672L304.16,207.19l16.978-0.339l0.669-8.382h4.317v-11.415h14.98
					l0.332-14.762l14.321-3.352l6-9.736l9.317-0.34l-3.013-15.769l0,0h-16.983l-3.314,7.382l-7.665,3.696l-6.313,17.115
					L321.463,178.672"/>
				<path id="mauretania_7_" fill="#2A1810" d="M304.277,208.368l3.208,4.186l-0.662,18.118l4.661-3.348l3.32-0.675l4.657,1.679
					l5.322,7.387l5-3.351l24.297-0.344l-6.003-40.603l6.443-0.035l-11.994-9.188l0.011,5.97l-15.18,0.016l-0.077,11.401
					l-4.369-0.021l-0.555,8.413L304.277,208.368L304.277,208.368z"/>
				<path id="senegal_7_" fill="#2A1810" d="M311.951,228.453l-5.791,4.21l-1.324,2.354l-0.405,2.354l2.129,1.53l7.111-0.104
					l4.575-1.232l0.52,2.253l-0.417,2.97l4.367,2.146l0.912,1.03l5.791,0.209l0.201-2.562l-5.287-6.355l-5.895-7.984l-3.658-1.53
					L311.951,228.453L311.951,228.453z"/>
				<path id="gambia_7_" fill="#E0DABA" d="M307.205,240.249l-0.194,1.63l10.173-0.146l0.516-1.512l-0.217-1.533l-2.927,1.185
					L307.205,240.249L307.205,240.249z"/>
				<path id="casamance_7_" fill="#E0DABA" d="M307.054,243.013l1.829,4.428l1.013-2.733l12.364,1.291l-5.355-2.746L307.054,243.013
					L307.054,243.013z"/>
				<path id="bissau_7_" fill="#E0DABA" d="M309.714,249.356l2.062,4.07l5.776-4.978l0.062-1.531l-6.81-0.984L309.714,249.356
					L309.714,249.356z"/>
				<path id="guinee_7_" fill="#B7AD84" d="M312.391,254.366l4.475,6.883l5.815-5.055l5.968-0.271l4.971,6.604l4.216,2.783
					l1.592-3.089l1.412-0.795l-0.104-6.797l-2.81-8.055l-8.613,0.955l-10.66-0.852l-0.059,2.735L312.391,254.366L312.391,254.366z"
					/>
				<path id="sierra_leone_7_" fill="#E0DABA" d="M317.554,261.999l8.307,8.039l5.923-7.199l-3.703-5.81l-5.103,0.517
					L317.554,261.999L317.554,261.999z"/>
				<path id="liberia_7_" fill="#E0DABA" d="M326.722,270.911l16.14,10.799l-0.378-8.177l-4.881-5.75l-4.758-4.22L326.722,270.911
					L326.722,270.911z"/>
				<path id="ivoire_7_" fill="#2A1810" stroke="#2A1810" stroke-width="0.6177" stroke-miterlimit="10" d="M344.217,282.028
					l6.292-4.452l7.822-1.366l7.981,1.718l-4.073-6.161l-1.191-3.768l1.191-11.135l-7.13,0.335l-3.232-3.088l-6.794,0.185
					l-3.233,0.511l0.342,7.531l-1.707,0.697l-2.039,3.763l5.264,6.163L344.217,282.028L344.217,282.028z"/>
				<path id="mali_7_" fill="#2A1810" d="M325.683,236.574l4.524-3.105l25.162-0.146l-5.818-40.504l6.645-0.19l32.152,24.543
					l4.321,0.618l-1.63,13.65l-20.212,1.837l-15.6,11.646l-2.838,7.97l-10.832,0.454l-2.761-7.955l-8.309,0.586l0.321-2.604
					L325.683,236.574L325.683,236.574z"/>
				<path id="burkina_7_" fill="#2A1810" d="M371.445,234.279l5.347-0.427l8.776,12.414l-8.144,6.148l-5.894-1.521l-7.924,0.1
					l-1.275,4.65l-6.646,0.325l-1.827-2.489l2.356-7.556L371.445,234.279L371.445,234.279z"/>
				<path id="niger_7_" fill="#B7AD84" d="M386.585,245.635l3.749-0.089l3.386-5.08l5.667-1.013l6.041,3.688l12.894,0.365
					l9.972-4.057l3.746-3.224l0.285-4.238l6.949-7.016l1.838-15.489l-4.568-9.585l-11.709-2.858l-27.075,21.122l-3.835-0.371
					l-1.646,14.666l-13.818,1.382L386.585,245.635L386.585,245.635z"/>
				<path id="ghana_7_" fill="#E0DABA" d="M362.256,267.762l1.646,3.87l4.293,6.735l2.378-0.086l6.499-3.69l-0.46-21.021
					l-5.027-1.471l-7.039,0.193L362.256,267.762L362.256,267.762z"/>
				<path id="togo_7_" fill="#2A1810" stroke="#2A1810" stroke-width="0.6177" stroke-miterlimit="10" d="M378.249,273.941
					l3.936-2.31l-0.087-15.223l-2.562-4.146l-1.645,1.386L378.249,273.941L378.249,273.941z"/>
				<path id="benin_7_" fill="#E0DABA" d="M383.373,271.354h3.115l0.177-8.85l3.942-5.725l-0.174-9.956l-3.571-0.084l-6.129,4.792
					l2.552,4.883L383.373,271.354L383.373,271.354z"/>
				<path id="nigeria_7_" fill="#E0DABA" d="M387.583,271.18l5.756,0.276l6.956,7.755l3.381,0.919l2.646-1.285l4.029-0.562
					l1.368-5.618l5.485-3.603l5.935-0.282l10.875-20.021l-0.172-4.516l-5.027-3.871l-10.056,4.434l-13.447-0.191l-6.408-4.061
					l-4.573,1.012l-2.379,4.146l-0.176,11.706l-3.84,5.445L387.583,271.18L387.583,271.18z"/>
				<path id="tunisia_7_" fill="#2A1810" d="M407.192,135.819l8.128-3.274l2.671,1.733l0.098,2.115l-1.246,1.63l0.191,2.896
					l1.252,0.681v5.198l-1.443,2.413l0.191,1.542l5.451,1.928l-4.396,6.837l-1.721-0.1l-0.291,5.504l-1.912,0.29l-1.628-1.441
					l0.377-5.589l-5.348-5.202l-0.677-4.528l2.585-2.031L407.192,135.819L407.192,135.819z"/>
				<path id="libya_7_" fill="#E0DABA" d="M414.749,166.257l2.289-0.377l0.68-5.295h1.147l4.686-7.706l11.568,3.363l3.162,4.917
					l11.379,5.206l5.918-2.503l-0.572-2.5l-2.584-2.497l0.283-1.741l4.211-3.557h8.322l3.162,4.232l6.688,0.975l0.863,54.247
					l-4.967-0.19l-30.01-15.617l-3.252,1.842l-12.336-3.093l-3.346-4.42l-4.888-0.688l-2.482-4.424L414.749,166.257L414.749,166.257
					z"/>
				<path id="egypt_7_" fill="#E0DABA" d="M476.303,158.951l3.928,0.101l7.65,2.118l3.621,0.101l4.49-3.764h2.113l3.822,2.118h4.834
					l0.861-0.061l3.055,8.793l0.867,2.837l0.812,4.251l-1.443,1.054l-2.48-1.249l-2.867-9.354l-2.584-0.194l-0.193,3.18l1.715,5.496
					l13.771,17.06l0.297,7.328l-4.016,4.63l-37.684-0.424L476.303,158.951L476.303,158.951z"/>
				<path id="chad_7_" fill="#E0DABA" d="M433.473,236.806l0.191-4.338l6.969-6.779l1.863-16.646l-4.645-8.878l3.252-1.665
					l31.457,16.399l-0.193,16.089l-5.545,4.722v8.295l3.623,7.029h-6.406l-10.609,10.5l-0.283,3.179l-7.828-0.103l-0.102,1.436
					l-4.477-0.588l-3.055-5.779l-2.291-1.131l0.291-1.768l2.885-2.209v-10.32l-3.988-0.617l-4.805-3.575L433.473,236.806
					L433.473,236.806L433.473,236.806z"/>
				<path id="sudan_7_" fill="#E0DABA" d="M473.69,231.56l0.262-17.401l3.623,0.104l-0.416-9.662l37.924,0.333l5.422-5.471
					l11.705,18.723l-6.414,7.56v11.54l-10.078,21.693l-3.471,1.533l1.102,6.04h4.32l5.865,8.52l-4.703,0.6l-1.205,2.186
					l-0.119,3.169l-14.111-0.257l-1.436-2.191l-9.865-0.554l-18.104-18.65l1.803-1.088l0.479-4.376l-4.332-2.558l-3.957-7.816
					l0.227-7.262L473.69,231.56L473.69,231.56z"/>
				<path id="cameroon_7_" fill="#2A1810" d="M411.468,278.401l4.734,4.349l-0.337,6.74l25.956-0.603l2.119-2.383l-7.441-8.021
					l-1.102-2.893l4.734-8.871l-3.217-5.883l-2.705-1.456V256.4l3.125-2.046l0.178-9.296l-2.48-0.278l-0.045,4.881l-10.912,20.373
					l-6.668,0.333l-4.574,3.147L411.468,278.401L411.468,278.401z"/>
				<path id="eritrea_7_" fill="#E0DABA" d="M527.432,234.896l-0.365-8.662l5.816-6.794l1.572,1.204l2.875,9.592l13.744,10.25
					l-2.49,3.08l-10.076-8.661h-11.076V234.896L527.432,234.896z"/>
				<path id="djibouti_7_" fill="#E0DABA" d="M549.141,244.959l-0.824,4.939l5.812-0.091l0.096-7.266l-2.145-1.307L549.141,244.959
					L549.141,244.959z"/>
				<path id="ethiopia_7_" fill="#E0DABA" d="M516.817,259.984l10.703-23.823l10.623,0.06l9.428,8.191l-0.662,6.75h7.314l0.74,4.062
					l11.82,7.073l7.289,0.367l-13.865,14.898l-19.025,5.867h-4.721l-8.408-7.175l-3.326-1.397l-6.439-9.486l-4.24,0.057
					l-0.496-4.349L516.817,259.984L516.817,259.984z"/>
				<path id="somaliland_7_" fill="#E0DABA" d="M555.401,250.101l6,4.089l1.771-0.091l14.898-5.119l1.688,5.465l-1.188,4.591
					l-3.219,2.565l-8.049-0.521l-11.5-7.066L555.401,250.101L555.401,250.101z"/>
				<path id="somalia_7_" fill="#E0DABA" d="M579.266,248.649l6.422-2.47l2.281,1.365l-0.242,5.708l-5.934,16.88l-32.051,34.359
					l-3.729-2.561l-0.254-14.501l4.826-5.541l10.229-3.162l15.02-15.854l3.916-3.502l1.107-5.115L579.266,248.649L579.266,248.649z"
					/>
				<path id="centrafrique_7_" fill="#B7AD84" d="M437.692,278.061l6.854,7.41l2.703-3.499l4.305,0.172l0.934-3.411l4.229-2.644
					l8.793,6.062l5.07-5.035l19.688,0.866l-18.258-18.85l2.443-1.525l0.344-3.32l-4.146-1.96h-6.1l-9.799,9.719l-0.336,3.995
					l-7.77-0.248l-0.25,1.705l-5.068-0.512l-4.574,8.692L437.692,278.061L437.692,278.061z"/>
				<path id="gabon_7_" fill="#B7AD84" d="M424.067,290.676l-0.178,3.666l-8.286-0.181l-5.077,9.815l11.925,13.047l2.953-2.469
					l-0.086-2.565l-2.031-0.937v-1.793l4.57-2.901l4.057,3.08l4.488,0.084l-0.084-15.424l-7.104-0.347l-0.092-3.236L424.067,290.676
					L424.067,290.676z"/>
				<path id="equatorial_guinea_7_" fill="#E0DABA" d="M416.122,290.765l-0.081,2.038l6.672,0.345l-0.086-2.307L416.122,290.765
					L416.122,290.765z"/>
				<path id="congo_7_" fill="#B7AD84" d="M430.842,290.517l-0.09,2.135l7.027,0.174l0.25,18.253l-6.422-0.172l-3.723-2.898
					l-2.881,1.623l-0.127,0.811l1.479,0.714l0.432,3.753l-3.975,3.411l0.852,1.786l4.402-3.404h2.117l0.67,2.043l2.795,1.193
					l8.965-7.591l-0.178-5.547l1.869-4.517l5.75-4.262l1.535-14.429l-4.074,0.017l-4.736,6.492L430.842,290.517L430.842,290.517z"/>
				<path id="cabinda_7_" fill="#E0DABA" d="M424.305,320.979l2.557,3.317l3.312-3.128l-0.971-3.25l-0.828-0.058L424.305,320.979
					L424.305,320.979z"/>
				<path id="drc_7_" fill="#2A1810" d="M428.459,324.625l15.162-0.271l3.064,4.371l-0.115,3.219l1.133,1.032h7.518l2.162-4.251
					h3.076l1.248,1.263l4.219-0.116l1.252,14.825l7.291,0.234v1.145l19.596,8.845l0.922,1.721h4.094l-0.455-6.208l-7.408-3.562
					l0.457-4.705l3.188-7.47l7.299-0.236l-6.271-20.8l0.111-8.836l9.912-15.504l0.115-2.175l-1.484-0.81l0.062-4.206l-1.807-0.167
					l-1.816-2.324l-29.924-1.353l-5.484,5.341l-8.977-5.917l-3.162,1.947l-2.293,19.312l-5.68,4.38l-1.701,3.885l0.312,5.747
					l-10.232,8.373l-2.721-1.238l0.371,1.602L428.459,324.625L428.459,324.625z"/>
				<path id="rwanda_7_" fill="#E0DABA" d="M499.666,301.37l4.129,3.82l-0.176,4.066l-6.412,0.138v-4.501L499.666,301.37
					L499.666,301.37z"/>
				<path id="burundi_7_" fill="#B7AD84" d="M497.303,310.649l6.271-0.132l-1.629,5.498l-1.59,1.386h-1.943l-1.381-3.72
					L497.303,310.649L497.303,310.649z"/>
				<path id="uganda_7_" fill="#E0DABA" d="M500.365,300.176l4.461,4.179l2.791-1.777l7.555-1.231l1.289,0.132l0.49-2.868
					l4.266-8.973l-3.59-7.466l-11.619,0.076l-0.08,3.071l1.557,1.499l-0.236,3.072L500.365,300.176L500.365,300.176z"/>
				<path id="kenya_7_" fill="#E0DABA" d="M518.783,281.694l3.918,7.63l-4.689,9.84l-0.609,2.982l23.408,14.488l7.266-11.41
					l-3.674-2.989l-0.066-15.036l4.592-5.027l-7.332,2.435l-5.545,0.076l-8.666-7.323l-2.734-1.18l-5.072,0.472l-0.896,1.497
					L518.783,281.694L518.783,281.694z"/>
				<path id="tanzania_7_" fill="#E0DABA" d="M518.408,347.723l25.674-3.146l-5.777-11.169l-0.311-10.711l1.875-5.115
					l-24.434-15.357l-7.666,1.27l-2.664,1.97l-0.221,4.487l-1.721,6.213l-1.803,2.148l-2.57,0.224l4.936,17.081l8.039,3.773
					l5.537,0.167L518.408,347.723L518.408,347.723z"/>
				<path id="zambia_7_" fill="#E0DABA" d="M465.459,367.262l4.662,6.462l7.217,0.451l2.547,1.406l7.557,0.084l6.521-9.142
					l18.191-8.143l1.588-7.171l-2.115-10.283l-9.494-5.41l-6.332,0.437l-3.176,7.013l0.096,3.187l7.463,3.629l0.451,7.901
					l-6.432,0.354l-1.578-2.67l-17.852-7.616l-0.527,5.853l-8.434,0.266L465.459,367.262L465.459,367.262z"/>
				<path id="angola_7_" fill="#E0DABA" d="M427.338,326.094l5.016,18.72l-0.113,5.916l-7.338,7.878l-1.105,12.812l28.227,0.247
					l9.178,3.329l7.57-0.983l-4.406-5.527l0.006-15.799l8.676-0.367v-6.159l-7.039-0.297l-1.408-14.594l-2.969,0.046l-1.602-1.44
					l-1.758,0.086l-2.316,4.51h-8.941l-2.074-2.098l0.621-2.949l-2.439-3.573L427.338,326.094L427.338,326.094z"/>
				<path id="malawi_7_" fill="#E0DABA" d="M513.389,359.469l4.576,4.777l-0.09,6.117l0.881,2.578l6.074-6.562l-0.705-8.344
					l-3.236-2.48l-2.898-14.632l-5.018-0.184l2.285,10.547L513.389,359.469L513.389,359.469z"/>
				<path id="mozambique_7_" fill="#E0DABA" d="M504.586,409.298l3.949,3.272l9.322-5.674l1.504-8.431v-13.913l14.941-12.233
					l2.566,0.082l9.051-8.688l-1.408-17.911l-24.016,3.034l0.719,5.403l4.135,3.189l0.961,9.757l-8.086,7.898l-1.941-4.434
					l0.355-5.852l-4.662-5.057l-11.438,5.328l10.643,5.407l0.359,15.777l-7.047,10.466L504.586,409.298L504.586,409.298z"/>
				<path id="zimbabwe_7_" fill="#E0DABA" d="M480.321,378.436l13.186,14.896l10.119,2.573l6.775-10.627l-0.523-14.09l-11.002-5.681
					l-4.135,1.867l-6.154,9.396l-8.52-0.083L480.321,378.436L480.321,378.436z"/>
				<path id="namibia_7_" fill="#E0DABA" d="M439,422.058l4.932,0.353l2.893,2.928l6.854,0.076l1.689-19.493v-12.771l4.391-0.881
					l1.68-13.385l11.168-0.356l3.953-3.276l-6.688-0.265l-9.051,1.239l-9.764-3.548h-27.434l0.697,7.801l9.146,13.468l-1.582,6.914
					l0.084,3.626L439,422.058L439,422.058z"/>
				<path id="botswana_7_" fill="#E0DABA" d="M456.586,406.279l3.154,0.964l-0.439,9.044l3.246,0.443l7.469-6.733l8.973,0.973
					l2.383-6.036l11.346-10.367l-13.629-15.688l-0.174-2.581l-1.504-0.436l-4.135,3.806l-10.729,0.264l-1.49,13.387l-4.219,0.969
					L456.586,406.279L456.586,406.279z"/>
				<path id="swaziland_7_" fill="#E0DABA" d="M504.151,410.351l-3.689,0.617l-1.588,4.334l2.814,2.58h3.428l2.898-4.168
					L504.151,410.351L504.151,410.351z"/>
				<path id="lesotho_7_" fill="#E0DABA" d="M484.356,427.099l4.488-3.463l2.115,0.098l2.559,3.186l-0.256,3.182l-4.309,1.596v1.234
					l-4.756-0.258l-1.139-3.475L484.356,427.099L484.356,427.099z"/>
				<path id="south_africa_7_" fill="#E0DABA" d="M494.274,395.107l-11.604,10.729l-2.766,6.632l-9.203-1.146l-7.656,6.811
					l-5.088-0.499l0.41-9.418l-1.807-0.632l-1.264,19.255l-9.031-0.094l-2.711-3.195l-3.986-0.041l3.633,10.424l6.477,6.124
					l-4.629,5.397l2.998,6.765l6.941,2.642l5.531-4.702l15.826,0.09l1.129-1.413l7.025-1.24l23.77-23.666l-0.08-7.453l-2.545,3.295
					h-3.812l-4.627-3.882l2.35-5.861l4.045-0.817l-0.367-12.024L494.274,395.107L494.274,395.107z M488.717,422.305l2.215-0.089
					l3.607,3.91l-0.105,4.535l-4.217,2.131l-0.262,1.512l-6.439,0.068l-2.016-4.861l1.844-3.549L488.717,422.305L488.717,422.305z"
					/>
				<path id="madagascar_7_" fill="#2A1810" d="M579.744,349.934l-3.121,7.438l-5.367,9.482l-9.396,0.664l-4.033,4.735l0.676,14.441
					l-5.818,6.774l0.676,11.493l4.922,5.632l5.818-0.675l5.82-4.293l-1.332-6.761l13.418-23.239l-2.691-2.93l2.691-5.637l2.91,0.901
					l0.895-2.254l-2.689-11.497l-1.566-4.729L579.744,349.934L579.744,349.934z"/>
			</g>
		</g>
		<text transform="matrix(1 0 0 1 368.446 182.95)" fill="#E0DABA" font-family="'Rockwell'" font-size="9.0883">ALGÉRIE</text>
		<text transform="matrix(1 0 0 1 307.0095 221.3386)" fill="#E0DABA" font-family="'Rockwell'" font-size="7.2706">MAURITANIE</text>
		<text transform="matrix(1 0 0 1 228.7908 249.8972)" fill="#2A1810" font-family="'Rockwell'" font-size="9.0883">BURKINA FASO</text>
		<text transform="matrix(1 0 0 1 313.699 255.9392)" fill="#2A1810" font-family="'Rockwell'" font-size="7.2706">GUINÉE </text>
		<text transform="matrix(1 0 0 1 340.8386 313.9597)" fill="#2A1810" font-family="'Rockwell'" font-size="9.0883">CAMEROUN</text>
		<text transform="matrix(1 0 0 1 357.3655 334.9392)" fill="#2A1810" font-family="'Rockwell'" font-size="9.0883">CONGO</text>
		<text transform="matrix(1 0 0 1 334.5237 345.8445)" fill="#2A1810" font-family="'Rockwell'" font-size="9.0883">BRAZZAVILLE</text>
		<text transform="matrix(1 0 0 1 401.905 304.3855)" fill="#2A1810" font-family="'Rockwell'" font-size="9.0883">GABON</text>
		<text transform="matrix(1 0 0 1 369.7117 287.9431)" fill="#2A1810" font-family="'Rockwell'" font-size="9.0883">TOGO</text>
		<text transform="matrix(1 0 0 1 456.5842 307.405)" fill="#E0DABA" font-family="'Rockwell'" font-size="9.0883">CONGO</text>
		<text transform="matrix(1 0 0 1 456.5842 318.3113)" fill="#E0DABA" font-family="'Rockwell'" font-size="9.0883">    RDC</text>
		<text transform="matrix(1 0 0 1 583.3381 391.4519)" fill="#2A1810" font-family="'Rockwell'" font-size="9.0883">MADAGASCAR</text>
		<text transform="matrix(1 0 0 1 583.3381 316.6345)" fill="#2A1810" font-family="'Rockwell'" font-size="9.0883">BURUNDI</text>
		<text transform="matrix(1 0 0 1 224.9827 271.8503)" fill="#2A1810" font-family="'Rockwell'" font-size="9.0883">CÔTE D’IVOIRE</text>
		<text transform="matrix(1 0 0 1 403.3567 225.946)" fill="#2A1810" font-family="'Rockwell'" font-size="9.0883">NIGER</text>
		<text transform="matrix(1 0 0 1 438.6038 275.1101)" fill="#2A1810" font-family="'Rockwell'" font-size="9.0883">CENTRAFRIQUE</text>
		<text transform="matrix(1 0 0 1 359.1736 222.9841)" fill="#E0DABA" font-family="'Rockwell'" font-size="9.0883">MALI</text>
		<text transform="matrix(1 0 0 1 261.8772 142.4792)" fill="#2A1810" font-family="'Rockwell'" font-size="9.0883">MAROC</text>
		<text transform="matrix(1 0 0 1 439.5686 134.0437)" fill="#2A1810" font-family="'Rockwell'" font-size="9.0883">TUNISIE</text>
		<text transform="matrix(1 0 0 1 250.6541 231.5027)" fill="#2A1810" font-family="'Rockwell'" font-size="9.0883">SÉNÉGAL</text>
		
			<line fill="none" stroke="#2A1810" stroke-width="0.6177" stroke-miterlimit="10" x1="298.224" y1="247.442" x2="371.075" y2="247.442"/>
		
			<line fill="none" stroke="#2A1810" stroke-width="0.5226" stroke-miterlimit="10" x1="298.368" y1="269.057" x2="350.508" y2="269.057"/>
		
			<line fill="none" stroke="#2A1810" stroke-width="0.6177" stroke-miterlimit="10" x1="392.668" y1="301.37" x2="422.489" y2="280.131"/>
		
			<line fill="none" stroke="#B7AD84" stroke-width="0.6177" stroke-miterlimit="10" x1="396.558" y1="338.485" x2="426.379" y2="317.244"/>
		
			<line fill="none" stroke="#2A1810" stroke-width="0.5226" stroke-miterlimit="10" x1="569.25" y1="388.98" x2="579.758" y2="388.98"/>
		<polyline fill="none" stroke="#2A1810" stroke-width="0.6177" stroke-miterlimit="10" points="298.224,139.554 322.26,139.554 
			342.862,162.408 		"/>
		<polyline fill="none" stroke="#2A1810" stroke-width="0.6177" stroke-miterlimit="10" points="435.828,131.668 422.512,131.668 
			411.099,154.525 		"/>
		
			<line fill="none" stroke="#2A1810" stroke-width="0.5226" stroke-miterlimit="10" x1="296.414" y1="229.298" x2="314.149" y2="235.423"/>
		
			<line fill="none" stroke="#2A1810" stroke-width="0.5226" stroke-miterlimit="10" x1="380.312" y1="271.274" x2="380.312" y2="278.95"/>
		
			<line fill="none" stroke="#2A1810" stroke-width="0.6177" stroke-miterlimit="10" x1="499.156" y1="314.36" x2="576.358" y2="314.36"/>
		<rect x="124.925" y="363.154" fill="#2A1810" width="9.749" height="25.062"/>
		<text transform="matrix(1 0 0 1 143.6287 372.4119)" fill="#010101" font-family="'Rockwell'" font-size="10.906">LES Unités-Pilote </text>
		<text transform="matrix(1 0 0 1 143.6287 385.4978)" fill="#010101" font-family="'Rockwell'" font-size="10.906">opérationelles</text>
		<rect x="124.791" y="405.876" fill="#B7AD84" width="9.749" height="25.062"/>
		<text transform="matrix(1 0 0 1 143.0691 408.7644)" fill="#010101" font-family="'Rockwell'" font-size="10.906">LES Unités-Pilote </text>
		<text transform="matrix(1 0 0 1 143.0691 421.8523)" fill="#010101" font-family="'Rockwell'" font-size="10.906">EN FORMATION ou </text>
		<text transform="matrix(1 0 0 1 143.0691 434.9402)" fill="#010101" font-family="'Rockwell'" font-size="10.906">en PRÉPARATION</text>
	</g>
	<g id="Layer_2">
	</g>
</g>
</svg>
