<?xml version="1.0" encoding="utf-8"?>
<!-- Generator: Adobe Illustrator 16.0.0, SVG Export Plug-In . SVG Version: 6.00 Build 0)  -->
<!DOCTYPE svg PUBLIC "-//W3C//DTD SVG 1.1//EN" "http://www.w3.org/Graphics/SVG/1.1/DTD/svg11.dtd">
<svg version="1.1" id="Layer_1" xmlns="http://www.w3.org/2000/svg" xmlns:xlink="http://www.w3.org/1999/xlink" x="0px" y="0px"
	 width="803" height="372" viewBox="90.446 87 803 372" enable-background="new 90.446 87 803 372" xml:space="preserve">
<g>
	<g id="Layer_1_1_">
		<g id="Calque_3">
			<g>
				<path id="algeria_7_" fill="#2A1810" d="M410.3,169.576l-5.077-1.707l-21.167,3.976l-4.609,3.502l2.816,14.55l-8.412,0.34
					l-5.061,8.141l-12.054,2.894l0.038,5.924l39.695,30.359l6.773,0.575l22.57-17.643l-2.259-2.844l-4.24-0.569l-2.54-4.266v-17.644
					l-1.692-1.705l0.285-4.557l-4.514-4.551l-0.559-4.84l1.971-1.42l-0.848-5.124L410.3,169.576L410.3,169.576z"/>
				<path id="morocco_7_" fill="#2A1810" d="M338.903,205.71l-14.671,24.181l14.395-0.288l0.567-7.106h3.661v-9.679h12.702
					l0.281-12.517l12.143-2.841l5.087-8.256l7.9-0.288l-2.555-13.369l0,0h-14.4l-2.81,6.259l-6.499,3.134l-5.353,14.512
					L338.903,205.71"/>
				<path id="mauretania_7_" fill="#2A1810" d="M324.331,230.888l2.72,3.549L326.49,249.8l3.952-2.839l2.815-0.572l3.949,1.424
					l4.513,6.263l4.24-2.841l20.601-0.291l-5.09-34.427l5.463-0.029l-10.169-7.79l0.009,5.062l-12.871,0.014l-0.065,9.667
					l-3.704-0.018l-0.471,7.133L324.331,230.888L324.331,230.888z"/>
				<path id="senegal_7_" fill="#2A1810" d="M330.838,247.918l-4.91,3.57l-1.123,1.995l-0.344,1.995l1.805,1.298l6.03-0.089
					l3.879-1.045l0.44,1.91l-0.354,2.519l3.703,1.819l0.773,0.873l4.91,0.178l0.171-2.172l-4.483-5.389l-4.998-6.771l-3.102-1.297
					L330.838,247.918L330.838,247.918z"/>
				<path id="gambia_7_" fill="#E0DABA" d="M326.814,257.92l-0.165,1.382l8.625-0.123l0.438-1.282l-0.184-1.3l-2.481,1.005
					L326.814,257.92L326.814,257.92z"/>
				<path id="casamance_7_" fill="#E0DABA" d="M326.686,260.263l1.551,3.755l0.858-2.318l10.484,1.095l-4.541-2.328L326.686,260.263
					L326.686,260.263z"/>
				<path id="bissau_7_" fill="#E0DABA" d="M328.941,265.641l1.748,3.451l4.897-4.22l0.052-1.299l-5.773-0.835L328.941,265.641
					L328.941,265.641z"/>
				<path id="guinee_7_" fill="#B7AD84" d="M331.211,269.889l3.794,5.836l4.931-4.286l5.06-0.23l4.215,5.6l3.574,2.359l1.35-2.619
					l1.197-0.674l-0.087-5.763l-2.382-6.829l-7.303,0.81l-9.039-0.722l-0.049,2.318L331.211,269.889L331.211,269.889z"/>
				<path id="sierra_leone_7_" fill="#E0DABA" d="M335.589,276.361l7.043,6.816l5.022-6.104l-3.14-4.926l-4.326,0.438
					L335.589,276.361L335.589,276.361z"/>
				<path id="liberia_7_" fill="#E0DABA" d="M343.362,283.918l13.685,9.156l-0.32-6.934l-4.138-4.875l-4.034-3.578L343.362,283.918
					L343.362,283.918z"/>
				<path id="ivoire_7_" fill="#2A1810" stroke="#2A1810" stroke-width="0.5237" stroke-miterlimit="10" d="M358.195,293.344
					l5.335-3.774l6.632-1.159l6.768,1.457l-3.454-5.225l-1.01-3.194l1.01-9.44l-6.045,0.284l-2.741-2.618l-5.761,0.156l-2.741,0.433
					l0.29,6.386l-1.447,0.592l-1.729,3.189l4.463,5.226L358.195,293.344L358.195,293.344z"/>
				<path id="mali_7_" fill="#2A1810" d="M342.481,254.803l3.836-2.633l21.334-0.124l-4.934-34.343l5.634-0.161l27.261,20.81
					l3.664,0.524l-1.382,11.573l-17.137,1.558l-13.227,9.875l-2.406,6.757l-9.185,0.386l-2.34-6.745l-7.045,0.497l0.272-2.209
					L342.481,254.803L342.481,254.803z"/>
				<path id="burkina_7_" fill="#2A1810" d="M381.282,252.858l4.533-0.362l7.441,10.526l-6.905,5.213l-4.997-1.289l-6.719,0.084
					l-1.081,3.943l-5.636,0.275l-1.549-2.11l1.998-6.406L381.282,252.858L381.282,252.858z"/>
				<path id="niger_7_" fill="#B7AD84" d="M394.118,262.487l3.179-0.075l2.871-4.308l4.805-0.858l5.122,3.126l10.932,0.31
					l8.456-3.439l3.176-2.732l0.242-3.594l5.892-5.948l1.559-13.134l-3.874-8.127l-9.928-2.423l-22.956,17.908l-3.252-0.314
					l-1.395,12.436l-11.716,1.171L394.118,262.487L394.118,262.487z"/>
				<path id="ghana_7_" fill="#E0DABA" d="M373.49,281.248l1.396,3.281l3.64,5.711l2.016-0.072l5.511-3.13l-0.39-17.822
					l-4.263-1.247l-5.968,0.164L373.49,281.248L373.49,281.248z"/>
				<path id="togo_7_" fill="#2A1810" stroke="#2A1810" stroke-width="0.5237" stroke-miterlimit="10" d="M387.051,286.487
					l3.337-1.959l-0.074-12.906l-2.172-3.516l-1.395,1.176L387.051,286.487L387.051,286.487z"/>
				<path id="benin_7_" fill="#E0DABA" d="M391.395,284.294h2.641l0.15-7.504l3.343-4.854l-0.147-8.441l-3.028-0.071l-5.197,4.062
					l2.164,4.141L391.395,284.294L391.395,284.294z"/>
				<path id="nigeria_7_" fill="#E0DABA" d="M394.965,284.146l4.88,0.234l5.898,6.575l2.867,0.779l2.243-1.09l3.417-0.478
					l1.16-4.763l4.651-3.055l5.032-0.239l9.221-16.977l-0.146-3.828l-4.263-3.282l-8.526,3.759l-11.401-0.162l-5.434-3.443
					l-3.877,0.858l-2.017,3.516l-0.149,9.926l-3.256,4.616L394.965,284.146L394.965,284.146z"/>
				<path id="tunisia_7_" fill="#2A1810" d="M411.591,169.376l6.892-2.776l2.265,1.47l0.083,1.793l-1.057,1.382l0.163,2.456
					l1.062,0.577v4.407l-1.224,2.046l0.163,1.307l4.621,1.635l-3.727,5.797l-1.459-0.085l-0.247,4.667l-1.621,0.246l-1.38-1.223
					l0.319-4.738l-4.534-4.411l-0.574-3.84l2.192-1.722L411.591,169.376L411.591,169.376z"/>
				<path id="libya_7_" fill="#E0DABA" d="M417.998,195.183l1.941-0.319l0.576-4.49h0.973l3.973-6.533l9.809,2.852l2.682,4.169
					l9.647,4.414l5.018-2.122l-0.485-2.12l-2.19-2.117l0.24-1.476l3.57-3.016h7.057l2.681,3.588l5.67,0.826l0.732,45.995
					l-4.211-0.161l-25.445-13.241l-2.757,1.562l-10.46-2.623l-2.837-3.747l-4.144-0.583l-2.105-3.751L417.998,195.183
					L417.998,195.183z"/>
				<path id="egypt_7_" fill="#E0DABA" d="M470.189,188.989l3.33,0.085l6.487,1.796l3.07,0.086l3.807-3.191h1.792l3.24,1.796h4.099
					l0.73-0.052l2.59,7.456l0.735,2.405l0.689,3.604l-1.224,0.894l-2.104-1.059l-2.431-7.932l-2.191-0.165l-0.164,2.696l1.454,4.66
					l11.677,14.464l0.252,6.214l-3.405,3.926l-31.951-0.359L470.189,188.989L470.189,188.989z"/>
				<path id="chad_7_" fill="#E0DABA" d="M433.874,255.001l0.162-3.678l5.908-5.748l1.58-14.114l-3.938-7.527l2.757-1.412
					l26.672,13.905l-0.164,13.642l-4.701,4.003v7.033l3.072,5.96h-5.433l-8.995,8.902l-0.24,2.695l-6.637-0.087l-0.087,1.218
					l-3.795-0.499l-2.591-4.9l-1.942-0.958l0.247-1.499l2.446-1.873v-8.75l-3.382-0.523l-4.074-3.031L433.874,255.001
					L433.874,255.001L433.874,255.001z"/>
				<path id="sudan_7_" fill="#E0DABA" d="M467.973,250.552l0.222-14.754l3.072,0.089l-0.353-8.192l32.154,0.282l4.598-4.639
					l9.925,15.875l-5.438,6.409v9.784l-8.545,18.394l-2.943,1.301l0.935,5.121h3.663l4.973,7.224l-3.987,0.508l-1.022,1.854
					l-0.101,2.687l-11.965-0.218l-1.217-1.858l-8.365-0.469l-15.35-15.813l1.528-0.923l0.406-3.71l-3.673-2.169l-3.355-6.627
					l0.192-6.157L467.973,250.552L467.973,250.552z"/>
				<path id="cameroon_7_" fill="#2A1810" d="M415.216,290.268l4.014,3.688l-0.286,5.715l22.007-0.511l1.797-2.021l-6.31-6.801
					l-0.934-2.452l4.015-7.522l-2.728-4.987l-2.294-1.234v-2.528l2.649-1.734l0.151-7.882l-2.104-0.236l-0.038,4.139l-9.252,17.273
					l-5.654,0.282l-3.878,2.669L415.216,290.268L415.216,290.268z"/>
				<path id="eritrea_7_" fill="#E0DABA" d="M513.54,253.382l-0.31-7.345l4.932-5.761l1.333,1.021l2.438,8.133l11.653,8.69
					l-2.111,2.611l-8.544-7.344h-9.391V253.382L513.54,253.382z"/>
				<path id="djibouti_7_" fill="#E0DABA" d="M531.947,261.913l-0.698,4.188l4.928-0.077l0.081-6.16l-1.818-1.108L531.947,261.913
					L531.947,261.913z"/>
				<path id="ethiopia_7_" fill="#E0DABA" d="M504.539,274.653l9.075-20.199l9.007,0.05l7.994,6.945l-0.562,5.724h6.202l0.627,3.444
					l10.022,5.997l6.181,0.312l-11.757,12.633l-16.131,4.975h-4.003l-7.129-6.084l-2.82-1.185l-5.46-8.043l-3.595,0.048
					l-0.421-3.688L504.539,274.653L504.539,274.653z"/>
				<path id="somaliland_7_" fill="#E0DABA" d="M537.254,266.273l5.087,3.467l1.503-0.077l12.632-4.34l1.431,4.634l-1.007,3.893
					l-2.729,2.175l-6.824-0.441l-9.751-5.991L537.254,266.273L537.254,266.273z"/>
				<path id="somalia_7_" fill="#E0DABA" d="M557.49,265.042l5.444-2.094l1.935,1.157l-0.205,4.84l-5.031,14.312l-27.176,29.133
					l-3.161-2.171l-0.215-12.296l4.092-4.697l8.673-2.682l12.734-13.442l3.32-2.97l0.939-4.337L557.49,265.042L557.49,265.042z"/>
				<path id="centrafrique_7_" fill="#B7AD84" d="M437.451,289.98l5.811,6.283l2.292-2.967l3.649,0.146l0.792-2.893l3.585-2.241
					l7.456,5.141l4.299-4.27l16.692,0.734l-15.48-15.982l2.072-1.293l0.291-2.815l-3.516-1.662h-5.172l-8.309,8.241l-0.284,3.387
					l-6.588-0.21l-0.212,1.445l-4.298-0.434l-3.878,7.37L437.451,289.98L437.451,289.98z"/>
				<path id="gabon_7_" fill="#B7AD84" d="M425.899,300.676l-0.15,3.108l-7.025-0.153l-4.305,8.322l10.112,11.062l2.504-2.094
					l-0.073-2.175l-1.723-0.794v-1.521l3.875-2.46l3.44,2.611l3.805,0.071l-0.071-13.077l-6.022-0.294l-0.078-2.744L425.899,300.676
					L425.899,300.676z"/>
				<path id="equatorial_guinea_7_" fill="#E0DABA" d="M419.162,300.752l-0.069,1.729l5.658,0.292l-0.073-1.956L419.162,300.752
					L419.162,300.752z"/>
				<path id="congo_7_" fill="#B7AD84" d="M431.644,300.542l-0.077,1.81l5.959,0.147l0.212,15.477l-5.445-0.146l-3.156-2.458
					l-2.442,1.376l-0.107,0.688l1.253,0.605l0.366,3.182l-3.37,2.893l0.723,1.515l3.732-2.887h1.795l0.568,1.732l2.369,1.012
					l7.602-6.437l-0.15-4.703l1.584-3.829l4.876-3.613l1.302-12.234l-3.455,0.015l-4.016,5.504L431.644,300.542L431.644,300.542z"/>
				<path id="cabinda_7_" fill="#E0DABA" d="M426.101,326.37l2.168,2.812l2.809-2.652l-0.823-2.756l-0.702-0.049L426.101,326.37
					L426.101,326.37z"/>
				<path id="drc_7_" fill="#2A1810" d="M429.623,329.461l12.855-0.23l2.599,3.706l-0.099,2.729l0.961,0.875h6.374l1.833-3.604
					h2.608l1.059,1.07l3.577-0.098l1.061,12.569l6.183,0.199v0.97l16.614,7.5l0.782,1.459h3.471l-0.386-5.264l-6.281-3.021
					l0.388-3.989l2.702-6.334l6.188-0.2l-5.317-17.636l0.095-7.492l8.404-13.146l0.098-1.844l-1.259-0.687l0.053-3.566l-1.531-0.142
					l-1.54-1.971l-25.372-1.146l-4.65,4.528l-7.61-5.017l-2.682,1.65l-1.944,16.375l-4.815,3.714l-1.442,3.294l0.265,4.873
					l-8.676,7.099l-2.307-1.05l0.314,1.358L429.623,329.461L429.623,329.461z"/>
				<path id="rwanda_7_" fill="#E0DABA" d="M489.998,309.743l3.501,3.239l-0.149,3.448l-5.437,0.116v-3.816L489.998,309.743
					L489.998,309.743z"/>
				<path id="burundi_7_" fill="#B7AD84" d="M487.994,317.611l5.317-0.112l-1.381,4.662l-1.349,1.175h-1.647l-1.171-3.154
					L487.994,317.611L487.994,317.611z"/>
				<path id="uganda_7_" fill="#E0DABA" d="M490.591,308.73l3.782,3.543l2.366-1.507l6.405-1.044l1.094,0.111l0.415-2.432
					l3.617-7.607l-3.044-6.33l-9.852,0.064l-0.068,2.604l1.32,1.271l-0.2,2.604L490.591,308.73L490.591,308.73z"/>
				<path id="kenya_7_" fill="#E0DABA" d="M506.207,293.06l3.322,6.47l-3.977,8.343l-0.517,2.528l19.848,12.284l6.16-9.674
					l-3.115-2.535l-0.056-12.748l3.893-4.263l-6.217,2.063l-4.701,0.065l-7.348-6.21l-2.318-1l-4.301,0.4l-0.76,1.269
					L506.207,293.06L506.207,293.06z"/>
				<path id="tanzania_7_" fill="#E0DABA" d="M505.889,349.046l21.769-2.668l-4.898-9.47l-0.264-9.082l1.59-4.337l-20.717-13.021
					l-6.499,1.076l-2.26,1.67l-0.187,3.805l-1.459,5.269l-1.528,1.821l-2.18,0.189l4.185,14.482l6.816,3.2l4.695,0.142
					L505.889,349.046L505.889,349.046z"/>
				<path id="zambia_7_" fill="#E0DABA" d="M460.994,365.612l3.953,5.479l6.119,0.382l2.159,1.192l6.407,0.071l5.529-7.751
					l15.424-6.904l1.347-6.08l-1.793-8.719l-8.05-4.587l-5.369,0.37l-2.692,5.946l0.081,2.701l6.327,3.077l0.383,6.699l-5.453,0.3
					l-1.338-2.264l-15.137-6.458l-0.447,4.963l-7.15,0.225L460.994,365.612L460.994,365.612z"/>
				<path id="angola_7_" fill="#E0DABA" d="M428.672,330.706l4.253,15.872l-0.096,5.016l-6.222,6.68l-0.938,10.863l23.933,0.21
					l7.781,2.822l6.419-0.833l-3.735-4.687l0.005-13.396l7.355-0.312v-5.223l-5.968-0.252l-1.194-12.373l-2.518,0.039l-1.357-1.222
					l-1.49,0.073l-1.964,3.823h-7.582l-1.758-1.778l0.526-2.501l-2.068-3.029L428.672,330.706L428.672,330.706z"/>
				<path id="malawi_7_" fill="#E0DABA" d="M501.633,359.004l3.88,4.051l-0.076,5.187l0.747,2.187l5.15-5.563l-0.598-7.075
					l-2.744-2.103l-2.458-12.406l-4.254-0.156l1.938,8.943L501.633,359.004L501.633,359.004z"/>
				<path id="mozambique_7_" fill="#E0DABA" d="M494.169,401.253l3.349,2.775l7.904-4.812l1.275-7.147v-11.797l12.668-10.373
					l2.177,0.07l7.674-7.367l-1.194-15.187l-20.362,2.572l0.609,4.582l3.506,2.704l0.814,8.272l-6.855,6.697l-1.646-3.76
					l0.302-4.961l-3.953-4.287l-9.697,4.518l9.023,4.584l0.305,13.378l-5.975,8.873L494.169,401.253L494.169,401.253z"/>
				<path id="zimbabwe_7_" fill="#E0DABA" d="M473.595,375.087l11.18,12.629l8.58,2.182l5.745-9.01l-0.444-11.946l-9.328-4.817
					l-3.506,1.584l-5.218,7.967l-7.224-0.07L473.595,375.087L473.595,375.087z"/>
				<path id="namibia_7_" fill="#E0DABA" d="M438.561,412.073l4.182,0.299l2.452,2.482l5.811,0.064l1.433-16.528v-10.828
					l3.723-0.746l1.425-11.349l9.469-0.303l3.352-2.778l-5.67-0.224l-7.674,1.051l-8.278-3.009h-23.261l0.591,6.614l7.756,11.419
					l-1.342,5.862l0.071,3.074L438.561,412.073L438.561,412.073z"/>
				<path id="botswana_7_" fill="#E0DABA" d="M453.471,398.693l2.675,0.817l-0.373,7.669l2.753,0.375l6.332-5.709l7.608,0.825
					l2.021-5.118l9.619-8.79l-11.556-13.301l-0.147-2.188l-1.274-0.369l-3.506,3.227l-9.097,0.224l-1.264,11.35l-3.577,0.821
					L453.471,398.693L453.471,398.693z"/>
				<path id="swaziland_7_" fill="#E0DABA" d="M493.8,402.146l-3.128,0.523l-1.347,3.675l2.387,2.188h2.906l2.457-3.534
					L493.8,402.146L493.8,402.146z"/>
				<path id="lesotho_7_" fill="#E0DABA" d="M477.017,416.346l3.806-2.936l1.793,0.082l2.17,2.701l-0.218,2.698l-3.652,1.353v1.047
					l-4.033-0.219l-0.965-2.946L477.017,416.346L477.017,416.346z"/>
				<path id="south_africa_7_" fill="#E0DABA" d="M485.426,389.221l-9.839,9.097l-2.345,5.623l-7.803-0.972l-6.492,5.774
					l-4.313-0.423l0.348-7.985l-1.532-0.536l-1.071,16.326l-7.657-0.079l-2.299-2.71l-3.38-0.034l3.08,8.838l5.491,5.192
					l-3.924,4.576l2.541,5.735l5.886,2.24l4.69-3.987l13.418,0.076l0.958-1.197l5.956-1.052l20.154-20.066l-0.068-6.319
					l-2.158,2.794h-3.232l-3.923-3.291l1.992-4.97l3.43-0.693l-0.312-10.195L485.426,389.221L485.426,389.221z M480.714,412.282
					l1.878-0.075l3.059,3.315l-0.089,3.845l-3.575,1.807l-0.223,1.282l-5.459,0.058l-1.709-4.121l1.562-3.01L480.714,412.282
					L480.714,412.282z"/>
				<path id="madagascar_7_" fill="#2A1810" d="M557.895,350.92l-2.646,6.307l-4.551,8.04l-7.967,0.562l-3.42,4.016l0.573,12.244
					l-4.934,5.744l0.573,9.745l4.173,4.774l4.934-0.572l4.935-3.64l-1.129-5.732l11.377-19.704l-2.282-2.483l2.282-4.779
					l2.467,0.764l0.759-1.911l-2.28-9.748l-1.328-4.01L557.895,350.92L557.895,350.92z"/>
			</g>
		</g>
		<text transform="matrix(1 0 0 1 378.739 209.3376)" fill="#E0DABA" font-family="'Rockwell'" font-size="7.7058">ALGÉRIE</text>
		<text transform="matrix(1 0 0 1 326.6482 241.8865)" fill="#E0DABA" font-family="'Rockwell'" font-size="6.1646">MAURITANIE</text>
		<text transform="matrix(1 0 0 1 260.3279 266.1013)" fill="#2A1810" font-family="'Rockwell'" font-size="7.7058">BURKINA FASO</text>
		<text transform="matrix(1 0 0 1 332.3201 271.2244)" fill="#2A1810" font-family="'Rockwell'" font-size="6.1646">GUINÉE </text>
		<text transform="matrix(1 0 0 1 355.3313 320.4187)" fill="#2A1810" font-family="'Rockwell'" font-size="7.7058">CAMEROUN</text>
		<text transform="matrix(1 0 0 1 369.344 338.2058)" fill="#2A1810" font-family="'Rockwell'" font-size="7.7058">CONGO</text>
		<text transform="matrix(1 0 0 1 349.9768 347.4519)" fill="#2A1810" font-family="'Rockwell'" font-size="7.7058">BRAZZAVILLE</text>
		<text transform="matrix(1 0 0 1 407.1082 312.3005)" fill="#2A1810" font-family="'Rockwell'" font-size="7.7058">GABON</text>
		<text transform="matrix(1 0 0 1 379.8123 298.3591)" fill="#2A1810" font-family="'Rockwell'" font-size="7.7058">TOGO</text>
		<text transform="matrix(1 0 0 1 453.469 314.8601)" fill="#E0DABA" font-family="'Rockwell'" font-size="7.7058">CONGO</text>
		<text transform="matrix(1 0 0 1 453.469 324.1072)" fill="#E0DABA" font-family="'Rockwell'" font-size="7.7058">    RDC</text>
		<text transform="matrix(1 0 0 1 560.9426 386.1218)" fill="#2A1810" font-family="'Rockwell'" font-size="7.7058">MADAGASCAR</text>
		<text transform="matrix(1 0 0 1 560.9426 322.6853)" fill="#2A1810" font-family="'Rockwell'" font-size="7.7058">BURUNDI</text>
		<text transform="matrix(1 0 0 1 257.0994 284.7146)" fill="#2A1810" font-family="'Rockwell'" font-size="7.7058">CÔTE D’IVOIRE</text>
		<text transform="matrix(1 0 0 1 408.3391 245.7927)" fill="#2A1810" font-family="'Rockwell'" font-size="7.7058">NIGER</text>
		<text transform="matrix(1 0 0 1 438.2249 287.4783)" fill="#2A1810" font-family="'Rockwell'" font-size="7.7058">CENTRAFRIQUE</text>
		<text transform="matrix(1 0 0 1 370.8772 243.281)" fill="#E0DABA" font-family="'Rockwell'" font-size="7.7058">MALI</text>
		<text transform="matrix(1 0 0 1 288.3811 175.0232)" fill="#2A1810" font-family="'Rockwell'" font-size="7.7058">MAROC</text>
		<text transform="matrix(1 0 0 1 439.0422 167.8708)" fill="#2A1810" font-family="'Rockwell'" font-size="7.7058">TUNISIE</text>
		<text transform="matrix(1 0 0 1 278.8655 250.5037)" fill="#2A1810" font-family="'Rockwell'" font-size="7.7058">SÉNÉGAL</text>
		
			<line fill="none" stroke="#2A1810" stroke-width="0.5237" stroke-miterlimit="10" x1="319.199" y1="264.018" x2="380.968" y2="264.018"/>
		
			<line fill="none" stroke="#2A1810" stroke-width="0.4431" stroke-miterlimit="10" x1="319.321" y1="282.345" x2="363.529" y2="282.345"/>
		
			<line fill="none" stroke="#2A1810" stroke-width="0.5237" stroke-miterlimit="10" x1="399.276" y1="309.743" x2="424.561" y2="291.735"/>
		
			<line fill="none" stroke="#B7AD84" stroke-width="0.5237" stroke-miterlimit="10" x1="402.575" y1="341.213" x2="427.86" y2="323.202"/>
		
			<line fill="none" stroke="#2A1810" stroke-width="0.4431" stroke-miterlimit="10" x1="548.997" y1="384.026" x2="557.906" y2="384.026"/>
		<polyline fill="none" stroke="#2A1810" stroke-width="0.5237" stroke-miterlimit="10" points="319.199,172.543 339.579,172.543 
			357.047,191.92 		"/>
		<polyline fill="none" stroke="#2A1810" stroke-width="0.5237" stroke-miterlimit="10" points="435.871,165.856 424.58,165.856 
			414.904,185.237 		"/>
		
			<line fill="none" stroke="#2A1810" stroke-width="0.4431" stroke-miterlimit="10" x1="317.664" y1="248.635" x2="332.701" y2="253.828"/>
		
			<line fill="none" stroke="#2A1810" stroke-width="0.4431" stroke-miterlimit="10" x1="388.8" y1="284.225" x2="388.8" y2="290.733"/>
		
			<line fill="none" stroke="#2A1810" stroke-width="0.5237" stroke-miterlimit="10" x1="489.566" y1="320.758" x2="555.024" y2="320.758"/>
		<rect x="124.925" y="363.154" fill="#2A1810" width="9.749" height="25.062"/>
		<text transform="matrix(1 0 0 1 143.6287 372.4119)" fill="#010101" font-family="'Rockwell'" font-size="10.906">les unités-pilote </text>
		<text transform="matrix(1 0 0 1 143.6287 385.4978)" fill="#010101" font-family="'Rockwell'" font-size="10.906">opérationelles</text>
		<rect x="124.791" y="405.876" fill="#B7AD84" width="9.749" height="25.062"/>
		<text transform="matrix(1 0 0 1 143.0691 408.7644)" fill="#010101" font-family="'Rockwell'" font-size="10.906">les unités-pilote </text>
		<text transform="matrix(1 0 0 1 143.0691 421.8523)" fill="#010101" font-family="'Rockwell'" font-size="10.906">en formation ou </text>
		<text transform="matrix(1 0 0 1 143.0691 434.9402)" fill="#010101" font-family="'Rockwell'" font-size="10.906">en préparation</text>
	</g>
	<g id="Layer_2">
	</g>
</g>
</svg>
